<?xml version="1.0" encoding="UTF-8"?>
<svg id="Chickens" xmlns="http://www.w3.org/2000/svg" viewBox="0 0 495.49 158.14">
  <defs>
    <style>
      .cls-1 {
        fill: #3e4347;
      }

      .cls-2 {
        fill: #d1dce6;
      }

      .cls-3 {
        fill: #f29a2e;
      }

      .cls-4 {
        fill: #e24b4b;
      }

      .cls-5 {
        opacity: .14;
      }

      .cls-6 {
        fill: #e1eaf2;
      }

      .cls-7 {
        fill: #f4bc58;
      }
    </style>
  </defs>
  <g id="Dead" class="cls-5">
    <g>
      <path d="M15.01,48.72c4.62,7.53,9.86,8.56,13.58,4.21,5.8-6.81-.65-15.4-7.24-17.87C10.02,30.81,.26,43.36,.26,43.36c0,0,10.72-1.21,14.75,5.35Z"/>
      <path d="M106.9,22.11c-20.13,11.64-3.43,40.04-39.72,47.43l38.76,18.97c7.93,13.61,29.57,14.53,29.57,14.53,0,0,5.53-16.29,1.08-28.09,11.94,0,20.37-7.38,20.37-7.38,0,0-6.67-23.93-27.41-24.11,20.37-8.39,23.98-25.5,23.98-25.5,0,0-18.22-12.29-46.64,4.14Z"/>
      <path d="M88.37,157.43H50.97c0-3.11,21.88-3.59,22.92-24.64,3.36,23.44,14.49,21.54,14.49,24.64Z"/>
      <path d="M124.08,75.31c0,30.12-24.55,60.95-54.83,60.95S14.42,105.43,14.42,75.31c0-20.09,43.34-6.1,54.83-6.1,30.28,0,54.83-24.02,54.83,6.1Z"/>
      <path d="M90.05,124.04c0,6.1-8.52,19.1-16.14,19.1s-16.25-8.84-16.25-14.94,32.38-7.15,32.38-4.16Z"/>
      <path d="M11.99,64.31c0,7.65,1.7,30.55,1.7,30.55l7.08-8.79,8.32,10.01,1.76-13.97,12.88,9.27-2.34-13.6,15.45,1.61-7.09-8.33,10.68-7.11s-12.97,2.82-12.79-5.16c.18-7.98,6.77-31.08-1.37-34.35-14.97-6.01-34.28,6.71-34.28,39.87Z"/>
      <path d="M11.99,36.82c.94,0,1.7,.38,1.7,.85s-.76,.85-1.7,.85-1.7-.38-1.7-.85,.76-.85,1.7-.85Z"/>
      <circle cx="25.17" cy="39.05" r="3.92"/>
      <path d="M15.36,57.02c0,8.31-5.42,2.28-5.42,2.28-1.7,0-9.38,5.63-6.81-3.81,3.44-12.64,16.43-20.99,16.43-20.99,0,0-4.21,7.5-4.19,22.51Z"/>
      <path d="M49.46,23.22c.08-1,.1-2.07-.01-3.25-.61-6.6,8.98-9.15,7.82-12.55-1.51-4.41-13.86-1.69-19.79,8.02-.71,1.16-1.26,2.47-1.65,3.83-.26-.96-.6-1.96-1.09-3.04-2.76-6.03,5.86-11.49,3.22-14.42-3.49-3.88-13.64,2.96-16.03,14.08-.48,2.25-.4,4.78,.19,7.04-.24-.2-.43-.4-.69-.61-4.38-3.38,.08-10.57-3.21-11.9-4.69-1.9-8.93,7.45-6.37,16.58,1.49,5.32,7.2,10.69,12.05,6.25,1.47-1.35,5.13-3.46,7.36-4.06,1.66-.44,5.82-.27,8.43,1.53,2.4,1.66,4.17,4.58,7.67,4.72,14.85,.61,23.05-13.85,17.54-17.1-3.37-1.99-7.61,3.18-15.45,4.86Z"/>
      <path d="M106.15,110.07c-2.25-5.63-9.1-8.89-9.1-8.89,6.94-3.7,11.18-11.61,11.18-11.61-3.69-1.6-17.85-2.64-17.85-2.64,3.25-3.25,5.77-7.57,5.77-7.57,0,0-16.14-4.05-29.75,3.52-17.7,9.84-12.57,33.44,7.66,36.16,21.99,2.96,32.09-8.98,32.09-8.98Z"/>
    </g>
    <g>
      <path d="M182.16,48.72c4.62,7.53,9.86,8.56,13.58,4.21,5.8-6.81-.65-15.4-7.24-17.87-11.32-4.24-21.08,8.32-21.08,8.32,0,0,10.72-1.21,14.75,5.35Z"/>
      <path d="M274.05,22.11c-20.13,11.64-3.43,40.04-39.72,47.43l38.76,18.97c7.93,13.61,29.57,14.53,29.57,14.53,0,0,5.53-16.29,1.08-28.09,11.94,0,20.37-7.38,20.37-7.38,0,0-6.67-23.93-27.41-24.11,20.37-8.39,23.98-25.5,23.98-25.5,0,0-18.22-12.29-46.64,4.14Z"/>
      <path d="M255.52,157.43h-37.41c0-3.11,21.88-3.59,22.92-24.64,3.36,23.44,14.49,21.54,14.49,24.64Z"/>
      <path d="M291.23,75.31c0,30.12-24.55,60.95-54.83,60.95s-54.83-30.83-54.83-60.95c0-20.09,43.34-6.1,54.83-6.1,30.28,0,54.83-24.02,54.83,6.1Z"/>
      <path d="M257.2,124.04c0,6.1-8.52,19.1-16.14,19.1s-16.25-8.84-16.25-14.94,32.38-7.15,32.38-4.16Z"/>
      <path d="M179.14,64.31c0,7.65,1.7,30.55,1.7,30.55l7.08-8.79,8.32,10.01,1.76-13.97,12.88,9.27-2.34-13.6,15.45,1.61-7.09-8.33,10.68-7.11s-12.97,2.82-12.79-5.16c.18-7.98,6.77-31.08-1.37-34.35-14.97-6.01-34.28,6.71-34.28,39.87Z"/>
      <path d="M179.14,36.82c.94,0,1.7,.38,1.7,.85s-.76,.85-1.7,.85-1.7-.38-1.7-.85,.76-.85,1.7-.85Z"/>
      <circle cx="192.32" cy="39.05" r="3.92"/>
      <path d="M182.51,57.02c0,8.31-5.42,2.28-5.42,2.28-1.7,0-9.38,5.63-6.81-3.81,3.44-12.64,16.43-20.99,16.43-20.99,0,0-4.21,7.5-4.19,22.51Z"/>
      <path d="M216.61,23.22c.08-1,.1-2.07-.01-3.25-.61-6.6,8.98-9.15,7.82-12.55-1.51-4.41-13.86-1.69-19.79,8.02-.71,1.16-1.26,2.47-1.65,3.83-.26-.96-.6-1.96-1.09-3.04-2.76-6.03,5.86-11.49,3.22-14.42-3.49-3.88-13.64,2.96-16.03,14.08-.48,2.25-.4,4.78,.19,7.04-.24-.2-.43-.4-.69-.61-4.38-3.38,.08-10.57-3.21-11.9-4.69-1.9-8.93,7.45-6.37,16.58,1.49,5.32,7.2,10.69,12.05,6.25,1.47-1.35,5.13-3.46,7.36-4.06,1.66-.44,5.82-.27,8.43,1.53,2.4,1.66,4.17,4.58,7.67,4.72,14.85,.61,23.05-13.85,17.54-17.1-3.37-1.99-7.61,3.18-15.45,4.86Z"/>
      <path d="M273.3,110.07c-2.25-5.63-9.1-8.89-9.1-8.89,6.94-3.7,11.18-11.61,11.18-11.61-3.69-1.6-17.85-2.64-17.85-2.64,3.25-3.25,5.77-7.57,5.77-7.57,0,0-16.14-4.05-29.75,3.52-17.7,9.84-12.57,33.44,7.66,36.16,21.99,2.96,32.09-8.98,32.09-8.98Z"/>
    </g>
    <g>
      <path d="M349.31,48.72c4.62,7.53,9.86,8.56,13.58,4.21,5.8-6.81-.65-15.4-7.24-17.87-11.32-4.24-21.08,8.32-21.08,8.32,0,0,10.72-1.21,14.75,5.35Z"/>
      <path d="M441.21,22.11c-20.13,11.64-3.43,40.04-39.72,47.43l38.76,18.97c7.93,13.61,29.57,14.53,29.57,14.53,0,0,5.53-16.29,1.08-28.09,11.94,0,20.37-7.38,20.37-7.38,0,0-6.67-23.93-27.41-24.11,20.37-8.39,23.98-25.5,23.98-25.5,0,0-18.22-12.29-46.64,4.14Z"/>
      <path d="M422.68,157.43h-37.41c0-3.11,21.88-3.59,22.92-24.64,3.36,23.44,14.49,21.54,14.49,24.64Z"/>
      <path d="M458.39,75.31c0,30.12-24.55,60.95-54.83,60.95s-54.83-30.83-54.83-60.95c0-20.09,43.34-6.1,54.83-6.1,30.28,0,54.83-24.02,54.83,6.1Z"/>
      <path d="M424.36,124.04c0,6.1-8.52,19.1-16.14,19.1s-16.25-8.84-16.25-14.94,32.38-7.15,32.38-4.16Z"/>
      <path d="M346.3,64.31c0,7.65,1.7,30.55,1.7,30.55l7.08-8.79,8.32,10.01,1.76-13.97,12.88,9.27-2.34-13.6,15.45,1.61-7.09-8.33,10.68-7.11s-12.97,2.82-12.79-5.16c.18-7.98,6.77-31.08-1.37-34.35-14.97-6.01-34.28,6.71-34.28,39.87Z"/>
      <path d="M346.3,36.82c.94,0,1.7,.38,1.7,.85s-.76,.85-1.7,.85-1.7-.38-1.7-.85,.76-.85,1.7-.85Z"/>
      <circle cx="359.47" cy="39.05" r="3.92"/>
      <path d="M349.66,57.02c0,8.31-5.42,2.28-5.42,2.28-1.7,0-9.38,5.63-6.81-3.81,3.44-12.64,16.43-20.99,16.43-20.99,0,0-4.21,7.5-4.19,22.51Z"/>
      <path d="M383.76,23.22c.08-1,.1-2.07-.01-3.25-.61-6.6,8.98-9.15,7.82-12.55-1.51-4.41-13.86-1.69-19.79,8.02-.71,1.16-1.26,2.47-1.65,3.83-.26-.96-.6-1.96-1.09-3.04-2.76-6.03,5.86-11.49,3.22-14.42-3.49-3.88-13.64,2.96-16.03,14.08-.48,2.25-.4,4.78,.19,7.04-.24-.2-.43-.4-.69-.61-4.38-3.38,.08-10.57-3.21-11.9-4.69-1.9-8.93,7.45-6.37,16.58,1.49,5.32,7.2,10.69,12.05,6.25,1.47-1.35,5.13-3.46,7.36-4.06,1.66-.44,5.82-.27,8.43,1.53,2.4,1.66,4.17,4.58,7.67,4.72,14.85,.61,23.05-13.85,17.54-17.1-3.37-1.99-7.61,3.18-15.45,4.86Z"/>
      <path d="M440.46,110.07c-2.25-5.63-9.1-8.89-9.1-8.89,6.94-3.7,11.18-11.61,11.18-11.61-3.69-1.6-17.85-2.64-17.85-2.64,3.25-3.25,5.77-7.57,5.77-7.57,0,0-16.14-4.05-29.75,3.52-17.7,9.84-12.57,33.44,7.66,36.16,21.99,2.96,32.09-8.98,32.09-8.98Z"/>
    </g>
  </g>
  <g id="Alive">
    <g id="_" data-name="1">
      <path class="cls-3" d="M14.89,48.43c4.67,7.6,9.95,8.64,13.7,4.25,5.85-6.87-.65-15.54-7.31-18.04C9.85,30.36,0,43.03,0,43.03c0,0,10.82-1.23,14.89,5.4Z"/>
      <path class="cls-6" d="M107.62,21.59c-20.32,11.74-3.47,40.41-40.09,47.87l39.12,19.15c8,13.73,29.84,14.66,29.84,14.66,0,0,5.58-16.44,1.09-28.34,12.05,0,20.56-7.45,20.56-7.45,0,0-6.73-24.15-27.66-24.33,20.56-8.47,24.2-25.73,24.2-25.73,0,0-18.39-12.4-47.06,4.18Z"/>
      <path class="cls-7" d="M88.92,158.14H51.17c0-3.13,22.08-3.62,23.13-24.87,3.39,23.65,14.62,21.74,14.62,24.87Z"/>
      <path class="cls-2" d="M124.95,75.27c0,30.4-24.77,61.51-55.33,61.51S14.29,105.67,14.29,75.27c0-20.27,43.74-6.16,55.33-6.16,30.56,0,55.33-24.23,55.33,6.16Z"/>
      <path class="cls-2" d="M90.61,124.45c0,6.15-8.6,19.27-16.28,19.27s-16.39-8.92-16.39-15.08,32.68-7.22,32.68-4.2Z"/>
      <path class="cls-6" d="M11.84,64.17c0,7.72,1.71,30.83,1.71,30.83l7.15-8.87,8.39,10.1,1.77-14.09,13,9.36-2.36-13.72,15.59,1.62-7.15-8.41,10.78-7.18s-13.09,2.84-12.91-5.2c.18-8.05,6.83-31.37-1.38-34.67-15.1-6.06-34.6,6.77-34.6,40.24Z"/>
      <path class="cls-1" d="M11.84,36.43c.95,0,1.71,.38,1.71,.86s-.77,.86-1.71,.86-1.71-.38-1.71-.86,.77-.86,1.71-.86Z"/>
      <circle class="cls-1" cx="25.14" cy="38.68" r="3.95"/>
      <path class="cls-4" d="M15.24,56.81c0,8.38-5.47,2.3-5.47,2.3-1.71,0-9.46,5.68-6.87-3.84,3.47-12.75,16.58-21.18,16.58-21.18,0,0-4.25,7.57-4.23,22.71Z"/>
      <path class="cls-4" d="M49.65,22.71c.08-1.01,.1-2.08-.01-3.28-.62-6.66,9.06-9.23,7.89-12.66-1.52-4.45-13.98-1.71-19.97,8.1-.71,1.17-1.27,2.49-1.66,3.86-.26-.97-.6-1.98-1.1-3.07-2.79-6.09,5.91-11.59,3.25-14.55-3.52-3.92-13.76,2.99-16.17,14.21-.48,2.27-.41,4.82,.19,7.11-.24-.2-.44-.41-.7-.61-4.42-3.42,.08-10.66-3.24-12.01-4.73-1.91-9.01,7.51-6.43,16.73,1.5,5.37,7.26,10.78,12.16,6.31,1.49-1.36,5.18-3.49,7.43-4.09,1.67-.45,5.87-.27,8.51,1.54,2.42,1.68,4.21,4.62,7.74,4.77,14.98,.62,23.26-13.97,17.7-17.26-3.4-2.01-7.67,3.21-15.59,4.9Z"/>
      <path class="cls-6" d="M106.86,110.35c-2.27-5.68-9.19-8.97-9.19-8.97,7-3.73,11.28-11.72,11.28-11.72-3.72-1.62-18.01-2.66-18.01-2.66,3.28-3.28,5.82-7.64,5.82-7.64,0,0-16.29-4.09-30.02,3.55-17.86,9.93-12.69,33.74,7.73,36.5,22.19,2.99,32.39-9.06,32.39-9.06Z"/>
    </g>
    <g id="_-2" data-name="2">
      <path class="cls-3" d="M183.56,48.43c4.67,7.6,9.95,8.64,13.7,4.25,5.85-6.87-.65-15.54-7.31-18.04-11.43-4.28-21.28,8.39-21.28,8.39,0,0,10.82-1.23,14.89,5.4Z"/>
      <path class="cls-6" d="M276.3,21.59c-20.32,11.74-3.47,40.41-40.09,47.87l39.12,19.15c8,13.73,29.84,14.66,29.84,14.66,0,0,5.58-16.44,1.09-28.34,12.05,0,20.56-7.45,20.56-7.45,0,0-6.73-24.15-27.66-24.33,20.56-8.47,24.2-25.73,24.2-25.73,0,0-18.39-12.4-47.06,4.18Z"/>
      <path class="cls-7" d="M257.6,158.14h-37.75c0-3.13,22.08-3.62,23.13-24.87,3.39,23.65,14.62,21.74,14.62,24.87Z"/>
      <path class="cls-2" d="M293.63,75.27c0,30.4-24.77,61.51-55.33,61.51s-55.33-31.11-55.33-61.51c0-20.27,43.74-6.16,55.33-6.16,30.56,0,55.33-24.23,55.33,6.16Z"/>
      <path class="cls-2" d="M259.29,124.45c0,6.15-8.6,19.27-16.28,19.27s-16.39-8.92-16.39-15.08,32.68-7.22,32.68-4.2Z"/>
      <path class="cls-6" d="M180.52,64.17c0,7.72,1.71,30.83,1.71,30.83l7.15-8.87,8.39,10.1,1.77-14.09,13,9.36-2.36-13.72,15.59,1.62-7.15-8.41,10.78-7.18s-13.09,2.84-12.91-5.2c.18-8.05,6.83-31.37-1.38-34.67-15.1-6.06-34.6,6.77-34.6,40.24Z"/>
      <path class="cls-1" d="M180.52,36.43c.95,0,1.71,.38,1.71,.86s-.77,.86-1.71,.86-1.71-.38-1.71-.86,.77-.86,1.71-.86Z"/>
      <circle class="cls-1" cx="193.82" cy="38.68" r="3.95"/>
      <path class="cls-4" d="M183.92,56.81c0,8.38-5.47,2.3-5.47,2.3-1.71,0-9.46,5.68-6.87-3.84,3.47-12.75,16.58-21.18,16.58-21.18,0,0-4.25,7.57-4.23,22.71Z"/>
      <path class="cls-4" d="M218.33,22.71c.08-1.01,.1-2.08-.01-3.28-.62-6.66,9.06-9.23,7.89-12.66-1.52-4.45-13.98-1.71-19.97,8.1-.71,1.17-1.27,2.49-1.66,3.86-.26-.97-.6-1.98-1.1-3.07-2.79-6.09,5.91-11.59,3.25-14.55-3.52-3.92-13.76,2.99-16.17,14.21-.48,2.27-.41,4.82,.19,7.11-.24-.2-.44-.41-.7-.61-4.42-3.42,.08-10.66-3.24-12.01-4.73-1.91-9.01,7.51-6.43,16.73,1.5,5.37,7.26,10.78,12.16,6.31,1.49-1.36,5.18-3.49,7.43-4.09,1.67-.45,5.87-.27,8.51,1.54,2.42,1.68,4.21,4.62,7.74,4.77,14.98,.62,23.26-13.97,17.7-17.26-3.4-2.01-7.67,3.21-15.59,4.9Z"/>
      <path class="cls-6" d="M275.54,110.35c-2.27-5.68-9.19-8.97-9.19-8.97,7-3.73,11.28-11.72,11.28-11.72-3.72-1.62-18.01-2.66-18.01-2.66,3.28-3.28,5.82-7.64,5.82-7.64,0,0-16.29-4.09-30.02,3.55-17.86,9.93-12.69,33.74,7.73,36.5,22.19,2.99,32.39-9.06,32.39-9.06Z"/>
    </g>
    <g id="_-3" data-name="3">
      <path class="cls-3" d="M352.24,48.43c4.67,7.6,9.95,8.64,13.7,4.25,5.85-6.87-.65-15.54-7.31-18.04-11.43-4.28-21.28,8.39-21.28,8.39,0,0,10.82-1.23,14.89,5.4Z"/>
      <path class="cls-6" d="M444.98,21.59c-20.32,11.74-3.47,40.41-40.09,47.87l39.12,19.15c8,13.73,29.84,14.66,29.84,14.66,0,0,5.58-16.44,1.09-28.34,12.05,0,20.56-7.45,20.56-7.45,0,0-6.73-24.15-27.66-24.33,20.56-8.47,24.2-25.73,24.2-25.73,0,0-18.39-12.4-47.06,4.18Z"/>
      <path class="cls-7" d="M426.28,158.14h-37.75c0-3.13,22.08-3.62,23.13-24.87,3.39,23.65,14.62,21.74,14.62,24.87Z"/>
      <path class="cls-2" d="M462.31,75.27c0,30.4-24.77,61.51-55.33,61.51s-55.33-31.11-55.33-61.51c0-20.27,43.74-6.16,55.33-6.16,30.56,0,55.33-24.23,55.33,6.16Z"/>
      <path class="cls-2" d="M427.97,124.45c0,6.15-8.6,19.27-16.28,19.27s-16.39-8.92-16.39-15.08,32.68-7.22,32.68-4.2Z"/>
      <path class="cls-6" d="M349.2,64.17c0,7.72,1.71,30.83,1.71,30.83l7.15-8.87,8.39,10.1,1.77-14.09,13,9.36-2.36-13.72,15.59,1.62-7.15-8.41,10.78-7.18s-13.09,2.84-12.91-5.2c.18-8.05,6.83-31.37-1.38-34.67-15.1-6.06-34.6,6.77-34.6,40.24Z"/>
      <path class="cls-1" d="M349.2,36.43c.95,0,1.71,.38,1.71,.86s-.77,.86-1.71,.86-1.71-.38-1.71-.86,.77-.86,1.71-.86Z"/>
      <circle class="cls-1" cx="362.5" cy="38.68" r="3.95"/>
      <path class="cls-4" d="M352.59,56.81c0,8.38-5.47,2.3-5.47,2.3-1.71,0-9.46,5.68-6.87-3.84,3.47-12.75,16.58-21.18,16.58-21.18,0,0-4.25,7.57-4.23,22.71Z"/>
      <path class="cls-4" d="M387.01,22.71c.08-1.01,.1-2.08-.01-3.28-.62-6.66,9.06-9.23,7.89-12.66-1.52-4.45-13.98-1.71-19.97,8.1-.71,1.17-1.27,2.49-1.66,3.86-.26-.97-.6-1.98-1.1-3.07-2.79-6.09,5.91-11.59,3.25-14.55-3.52-3.92-13.76,2.99-16.17,14.21-.48,2.27-.41,4.82,.19,7.11-.24-.2-.44-.41-.7-.61-4.42-3.42,.08-10.66-3.24-12.01-4.73-1.91-9.01,7.51-6.43,16.73,1.5,5.37,7.26,10.78,12.16,6.31,1.49-1.36,5.18-3.49,7.43-4.09,1.67-.45,5.87-.27,8.51,1.54,2.42,1.68,4.21,4.62,7.74,4.77,14.98,.62,23.26-13.97,17.7-17.26-3.4-2.01-7.67,3.21-15.59,4.9Z"/>
      <path class="cls-6" d="M444.22,110.35c-2.27-5.68-9.19-8.97-9.19-8.97,7-3.73,11.28-11.72,11.28-11.72-3.72-1.62-18.01-2.66-18.01-2.66,3.28-3.28,5.82-7.64,5.82-7.64,0,0-16.29-4.09-30.02,3.55-17.86,9.93-12.69,33.74,7.73,36.5,22.19,2.99,32.39-9.06,32.39-9.06Z"/>
    </g>
  </g>
</svg>