<?xml version="1.0" encoding="UTF-8"?>
<svg id="Layer_1" data-name="Layer 1" xmlns="http://www.w3.org/2000/svg" viewBox="0 0 256.84 362.33">
  <defs>
    <style>
      .cls-1 {
        fill: #664e27;
      }

      .cls-2 {
        fill: #ffb300;
      }

      .cls-3 {
        fill: #f5f5f5;
      }

      .cls-4 {
        fill: #62727a;
      }

      .cls-5 {
        fill: #2c3033;
      }

      .cls-6 {
        fill: #cad5dd;
      }

      .cls-7 {
        fill: #eba352;
      }

      .cls-8 {
        fill: #dfe9ef;
      }

      .cls-9 {
        fill: #b0bdc6;
      }

      .cls-10 {
        fill: #ffdd67;
      }

      .cls-11 {
        fill: #231f20;
      }

      .cls-12 {
        fill: #937237;
      }
    </style>
  </defs>
  <g>
    <path class="cls-2" d="M53.11,157.31H220.05c0-89.89-12.85-109.15-83.47-109.15s-83.47,19.26-83.47,109.15Z"/>
    <path class="cls-10" d="M213.01,137.69c-.53,3.48-1.26,6.75-2.26,8.61-1.79,3.32-5.45,5.21-5.45,5.21,0,0,.98-6.73,.63-16.15-3.82-55.61-7.12-40.32-69.34-40.32s-97.2,10.78-97.2,48.26c0,27.19,25.85,39.69,25.85,39.69,6.44,26.85,24.76,41.87,53.65,54.86,8.74,3.93,26.63,3.93,35.36,0,31.98-14.38,51.01-31.24,55.32-63.89,13.03-.92,16.89-9.44,16.89-19.83,0-16.69-7.58-17.96-13.46-16.44Z"/>
    <path class="cls-12" d="M165.48,198.59c0,11.01-14.45,16.51-28.89,16.51s-28.89-5.5-28.89-16.51c0,0,0-2.76,2.89-2.76h52.01c2.89,0,2.89,2.76,2.89,2.76Z"/>
    <path class="cls-3" d="M175.1,133.44c16.05,0,22.48,5.79,22.48,11.59s0,14.1-21.22,14.1-23.73-2.52-23.73-11.21c0-5.79,6.42-14.48,22.47-14.48Z"/>
    <circle class="cls-1" cx="173.5" cy="143.29" r="14.45" transform="translate(-41.63 77.3) rotate(-22.5)"/>
    <path class="cls-11" d="M168.69,143.28c0,2.67,2.17,4.82,4.82,4.82s4.82-2.15,4.82-4.82-2.16-4.81-4.82-4.81-4.82,2.15-4.82,4.81Z"/>
    <path class="cls-1" d="M197.58,144.89c0-22.48-44.95-22.48-44.95,3.21,6.42-19.26,38.52-19.26,44.95-3.21Z"/>
    <path class="cls-7" d="M136.58,186.2c-13.42,0-20.13-9.63-13.42-9.63h26.84c6.71,0,0,9.62-13.42,9.63Z"/>
    <path class="cls-3" d="M85.38,129.34c-18.63,0-26.08,6.73-26.08,13.45s0,16.37,24.62,16.37,27.55-2.93,27.55-13.01c0-6.73-7.45-16.81-26.08-16.81Z"/>
    <circle class="cls-1" cx="87.24" cy="140.76" r="16.77"/>
    <path class="cls-11" d="M92.83,140.76c0,3.09-2.52,5.59-5.59,5.59s-5.59-2.5-5.59-5.59,2.5-5.59,5.59-5.59c3.07,0,5.59,2.5,5.59,5.59Z"/>
    <path class="cls-1" d="M59.29,142.63c0-26.08,52.17-26.08,52.17,3.72-7.45-22.36-44.72-22.36-52.17-3.72Z"/>
    <path class="cls-4" d="M219.27,81.47c-36.48-40.67,.32-95.54-28.06-78.16-20.73,12.7-41.13,16.02-55.68,16.02s-34.94-3.32-55.68-16.02c-28.38-17.38,8.42,37.49-28.06,78.16-34.89,20.53-36.65,17.91-36.65,22.97,0,2.76,1.45,27.46,120.39,27.46s120.4-24.7,120.4-27.46c0-5.06-1.77-2.44-36.66-22.97Z"/>
    <path class="cls-5" d="M135.53,88.7c38.52,0,83.74-7.35,83.74-7.35-3.83-4.27-6.81-8.92-9.19-13.77-18.61,2.63-42.85,4.39-74.55,4.39s-55.95-1.76-74.55-4.39c-2.37,4.85-5.35,9.49-9.19,13.77,0,0,45.22,7.35,83.74,7.35Z"/>
  </g>
  <g>
    <path class="cls-9" d="M2.42,316.98l74.31-77.42L19.52,157.42c-2.74,3.59-4.76,8.53-5.33,13.97L.17,302.66c-.57,5.4,.34,10.47,2.25,14.32Z"/>
    <path class="cls-9" d="M251.59,143.45l-107.45,99.92,84.67,114.44c4.64-3.9,7.98-10,8.77-17.36l19.08-178.73c.79-7.41-1.27-13.89-5.08-18.27Z"/>
    <path class="cls-6" d="M103.27,279.59l-26.54-40.04L2.42,316.98c1.77,3.54,4.39,6.06,7.54,6.66l203.92,38.4c5.45,1.03,10.71-.67,14.94-4.22l-84.67-114.44-40.88,36.22Z"/>
    <path class="cls-8" d="M237.84,137.64l-209.54,14.17c-3.22,.22-6.3,2.37-8.78,5.61l57.21,82.14,26.54,40.04,40.88-36.22,107.45-99.92c-3.42-3.92-8.21-6.18-13.75-5.81Z"/>
  </g>
</svg>