<?xml version="1.0" encoding="UTF-8"?>
<svg id="Layer_1" data-name="Layer 1" xmlns="http://www.w3.org/2000/svg" viewBox="0 0 403.29 364">
  <defs>
    <style>
      .cls-1, .cls-2 {
        fill: #fff;
      }

      .cls-3 {
        fill: #c1272d;
      }

      .cls-4 {
        fill: #4d4d4d;
      }

      .cls-4, .cls-2 {
        stroke: #000;
        stroke-miterlimit: 10;
        stroke-width: 15px;
      }
    </style>
  </defs>
  <rect class="cls-2" x="42.79" y="7.5" width="316" height="322" rx="5.31" ry="5.31"/>
  <path class="cls-4" d="M354.1,99.5H216.79c-.05-.19-.64-.14-1.62,0h-18.22c-1.46-.47-2.87-1.12-4.16-2-.52-.35-3.11-2.12-6-5-1.23-1.23-3.95-3.94-6-7-.36-.54-.7-1.08-1-1.61v-2.7c0-23.02-18.66-41.69-41.69-41.69H50.48c-23.02,0-42.69,18.98-42.69,42v51c-.65,2.92,0,5.57,0,8.69v173.62c0,23.02,18.66,41.69,41.69,41.69H354.1c23.02,0,41.69-18.66,41.69-41.69V141.19c0-23.02-18.66-41.69-41.69-41.69Z"/>
  <path d="M335.44,36.69c-19.1-2.34-38.32-3.59-57.56-3.72-5.43-.03-10.85,.02-16.28,.16-1.93,.05-1.93,3.05,0,3,19.23-.5,38.49,.1,57.65,1.83,5.4,.49,10.8,1.06,16.19,1.73,1.91,.23,1.89-2.77,0-3h0Z"/>
  <path d="M222.86,50.23c14.32-1.16,28.72-1.16,43.03,.04,7.19,.6,14.33,1.55,21.45,2.68s14.13,2.19,21.3,2.14c8.15-.05,16.24-1.23,24.3-2.38,1.9-.27,1.09-3.16-.8-2.89-7.15,1.02-14.31,2.03-21.54,2.23s-14.19-.69-21.25-1.81c-14.1-2.24-28.24-3.73-42.53-3.87-8-.08-15.99,.21-23.97,.85-1.91,.15-1.93,3.16,0,3h0Z"/>
  <path d="M175.76,63.82c12.5-.9,25.08-.5,37.49,1.26,.81,.12,1.6-.2,1.85-1.05,.2-.7-.25-1.73-1.05-1.85-12.68-1.81-25.5-2.29-38.29-1.37-1.91,.14-1.93,3.14,0,3h0Z"/>
  <path d="M252.39,69.41l56.65,1.96,16.22,.56c1.93,.07,1.93-2.93,0-3l-56.65-1.96-16.22-.56c-1.93-.07-1.93,2.93,0,3h0Z"/>
  <path d="M191.44,86.82c20.06,.04,40.11-1.11,60.04-3.45,1.89-.22,1.92-3.23,0-3-19.92,2.34-39.98,3.49-60.04,3.45-1.93,0-1.93,3,0,3h0Z"/>
  <path d="M293.95,85.39c15.02-1.34,30.1-2.05,45.18-2.13,1.93-.01,1.93-3.01,0-3-15.08,.09-30.16,.8-45.18,2.13-1.91,.17-1.93,3.17,0,3h0Z"/>
  <path d="M70.92,34.1c-.67-2.52-.97-5.09-.84-7.69,.06-1.18,.18-2.39,.46-3.54,.34-1.42,1.25-1.37,2.56-1.4,5.57-.15,11.14-.28,16.7-.42l16.7-.42,8.48-.21c1.3-.03,2.61-.09,3.91-.1,1.14,0,2.26,.05,2.88,1.13,1.14,1.97,.75,5.01,.84,7.19l.38,9.54c.08,1.92,3.08,1.93,3,0l-.39-9.78c-.1-2.44,.09-5.19-.81-7.51s-2.94-3.51-5.48-3.56c-3.26-.07-6.56,.15-9.82,.24l-19.2,.48-9.72,.25c-3.02,.08-6.17-.1-9.17,.29-3.43,.44-3.92,3.59-4.23,6.49-.34,3.3-.02,6.65,.84,9.85,.5,1.86,3.39,1.07,2.89-.8h0Z"/>
  <g>
    <path class="cls-3" d="M54.56,165.02v-9.26h28.17v9.26h-8.49v37.94h-11.32v-37.94h-8.36Z"/>
    <path class="cls-3" d="M87.88,202.96v-47.21h28.17v47.21h-28.17Zm16.85-9.26v-28.68h-5.53v28.68h5.53Z"/>
    <path class="cls-3" d="M121.19,202.96v-47.21h28.17v17.11l-10.16,11.06h-6.69v19.04h-11.32Zm11.32-28.3h2.32l3.22-3.34v-6.3h-5.53v9.65Z"/>
    <path class="cls-3" d="M168.97,171.51v-15.76h28.17v16.46h-11.32v-7.2h-5.53v5.53l16.85,16.59v15.82h-28.17v-16.46h11.32v7.2h5.53v-5.53l-16.85-16.66Z"/>
    <path class="cls-3" d="M202.29,202.96v-47.21h28.17v9.26h-16.85v9.65h14.02v9.26h-14.02v9.78h16.85v9.26h-28.17Z"/>
    <path class="cls-3" d="M235.6,155.76h28.17v16.08h-11.32v-6.82h-5.53v28.68h5.53v-6.82h11.32v16.08h-28.17v-47.21Z"/>
    <path class="cls-3" d="M268.92,202.96v-47.21h28.17v17.11l-6.05,6.56,6.05,6.43v17.11h-11.32v-16.98l-2.06-2.06h-3.47v19.04h-11.32Zm11.32-28.3h3.47l2.06-2.06v-7.59h-5.53v9.65Z"/>
    <path class="cls-3" d="M302.23,202.96v-47.21h28.17v9.26h-16.85v9.65h14.02v9.26h-14.02v9.78h16.85v9.26h-28.17Z"/>
    <path class="cls-3" d="M335.55,165.02v-9.26h28.17v9.26h-8.49v37.94h-11.32v-37.94h-8.36Z"/>
    <path class="cls-1" d="M54.56,281.99v-47.21h28.17v47.21h-28.17Zm16.85-9.26v-28.68h-5.53v28.68h5.53Z"/>
    <path class="cls-1" d="M87.88,281.99v-47.21h28.17v17.11l-10.16,11.06h-6.69v19.04h-11.32Zm11.32-28.3h2.32l3.22-3.34v-6.3h-5.53v9.65Z"/>
    <path class="cls-1" d="M121.19,281.99v-47.21h28.17v9.26h-16.85v9.65h14.02v9.26h-14.02v9.78h16.85v9.26h-28.17Z"/>
    <path class="cls-1" d="M154.5,281.99v-47.21h11.32l5.53,18.26v-18.26h11.32v47.21h-10.93l-5.92-18.26v18.26h-11.32Z"/>
    <path class="cls-1" d="M201.65,281.99l2.06-47.21h23.86l2.12,47.21h-11.32l-.32-13.83h-4.76l-.32,13.83h-11.32Zm15.95-23.15l-.51-14.79h-2.96l-.51,14.79h3.99Z"/>
    <path class="cls-1" d="M234.19,234.79h11.32v37.95h16.85v9.26h-28.17v-47.21Z"/>
    <path class="cls-1" d="M267.5,281.99v-47.21h28.17v47.21h-28.17Zm16.85-9.26v-28.68h-5.53v28.68h5.53Z"/>
    <path class="cls-1" d="M300.82,281.99v-47.21h11.32l5.53,18.26v-18.26h11.32v47.21h-10.93l-5.92-18.26v18.26h-11.32Z"/>
    <path class="cls-1" d="M334.13,281.99v-47.21h28.17v9.26h-16.85v9.65h14.02v9.26h-14.02v9.78h16.85v9.26h-28.17Z"/>
  </g>
</svg>