<?xml version="1.0" encoding="UTF-8"?>
<svg id="Layer_1" data-name="Layer 1" xmlns="http://www.w3.org/2000/svg" xmlns:xlink="http://www.w3.org/1999/xlink" viewBox="0 0 545.22 545.22">
  <defs>
    <style>
      .cls-1 {
        fill: #664e27;
      }

      .cls-2 {
        font-size: 51.51px;
      }

      .cls-2, .cls-3 {
        opacity: .33;
      }

      .cls-2, .cls-4 {
        font-family: Jumpman, Jumpman;
      }

      .cls-3 {
        font-size: 49.51px;
      }

      .cls-3, .cls-5 {
        font-family: MyriadPro-Regular, Myriad Pro;
      }

      .cls-6 {
        fill: #ffb300;
      }

      .cls-7 {
        stroke-width: 4px;
      }

      .cls-7, .cls-8, .cls-9 {
        stroke: #000;
      }

      .cls-7, .cls-8, .cls-9, .cls-10 {
        stroke-miterlimit: 10;
      }

      .cls-7, .cls-9 {
        fill: none;
      }

      .cls-11, .cls-4 {
        fill: #fff;
      }

      .cls-12 {
        fill: #917524;
      }

      .cls-13 {
        fill: url(#radial-gradient);
        opacity: .51;
      }

      .cls-14 {
        fill: url(#linear-gradient);
      }

      .cls-15 {
        fill: #f5f5f5;
      }

      .cls-16 {
        fill: #cccfd4;
      }

      .cls-17 {
        opacity: .4;
      }

      .cls-18 {
        fill: #333;
      }

      .cls-19 {
        fill: #62727a;
      }

      .cls-8 {
        fill: #ccc;
      }

      .cls-8, .cls-9 {
        stroke-width: 3px;
      }

      .cls-20 {
        fill: #2c3033;
      }

      .cls-21 {
        fill: url(#linear-gradient-2);
      }

      .cls-22 {
        opacity: .11;
      }

      .cls-4 {
        font-size: 49.35px;
      }

      .cls-23 {
        fill: #493b30;
      }

      .cls-24 {
        fill: #df00d5;
      }

      .cls-25 {
        fill: #696a6b;
      }

      .cls-26 {
        opacity: .16;
      }

      .cls-27 {
        fill: #eba352;
      }

      .cls-28 {
        opacity: .14;
      }

      .cls-29 {
        fill: url(#linear-gradient-3);
      }

      .cls-30 {
        fill: #1a1a1a;
      }

      .cls-31 {
        fill: #b0bdc6;
      }

      .cls-32 {
        fill: #ffdd67;
      }

      .cls-33 {
        fill: #f46767;
      }

      .cls-34 {
        opacity: .25;
      }

      .cls-35 {
        fill: #231f20;
      }

      .cls-10 {
        fill: gray;
        stroke: #666;
        stroke-width: 2px;
      }

      .cls-36 {
        fill: red;
      }

      .cls-37 {
        fill: #937237;
      }

      .cls-5 {
        font-size: 47.43px;
      }

      .cls-38 {
        fill: #b000ff;
      }
    </style>
    <linearGradient id="linear-gradient" x1="179.35" y1="178.87" x2="272.85" y2="272.37" gradientTransform="matrix(1, 0, 0, 1, 0, 0)" gradientUnits="userSpaceOnUse">
      <stop offset="0" stop-color="#2a0000" stop-opacity=".4"/>
      <stop offset="1" stop-color="#ff7715" stop-opacity=".2"/>
    </linearGradient>
    <linearGradient id="linear-gradient-2" x1="179.35" y1="46.87" x2="272.85" y2="140.37" gradientTransform="translate(412.99 -.48) rotate(90)" gradientUnits="userSpaceOnUse">
      <stop offset="0" stop-color="#2a0000" stop-opacity=".4"/>
      <stop offset="1" stop-color="#ff7715" stop-opacity=".2"/>
    </linearGradient>
    <linearGradient id="linear-gradient-3" x1="272.85" y1="406.61" x2="272.85" y2="272.37" gradientTransform="matrix(1, 0, 0, 1, 0, 0)" gradientUnits="userSpaceOnUse">
      <stop offset="0" stop-color="#000" stop-opacity=".4"/>
      <stop offset="1" stop-color="#000" stop-opacity=".1"/>
    </linearGradient>
    <radialGradient id="radial-gradient" cx="272.61" cy="272.61" fx="272.61" fy="272.61" r="198" gradientTransform="matrix(1, 0, 0, 1, 0, 0)" gradientUnits="userSpaceOnUse">
      <stop offset="0" stop-color="#fff" stop-opacity=".1"/>
      <stop offset="1" stop-color="#000" stop-opacity=".4"/>
    </radialGradient>
  </defs>
  <circle cx="272.61" cy="272.61" r="198"/>
  <g>
    <path class="cls-36" d="M272.85,82.3v190.07H82.3v-2.13l.23-7.26,.45-6.81,.31-3.3,.61-5.28,.62-4.39,1.11-6.48,1.01-4.99,1.91-7.96,1.6-5.72,1.72-5.48,1.82-5.25,2.69-6.97,2.95-6.84,2.46-5.2,3.97-7.62,3.33-5.81,3.22-5.21,2.38-3.62,3.17-4.56,2.99-4.05,2.53-3.27,3.01-3.71,3.62-4.22,2.64-2.93,2.35-2.5,2.71-2.78,2.87-2.83,2.49-2.35,2.34-2.14,3.56-3.12,3.63-3.03,3.22-2.57,3.83-2.91,2.99-2.17,2.85-1.99,5.6-3.68,5-3.06,4.08-2.34,4.25-2.3,5.67-2.86,6.11-2.82,5.93-2.49,6.15-2.34,6.76-2.29,5.51-1.66,3.2-.88,5.17-1.3,5.9-1.29,5.58-1.04,6.4-.99,9.34-1.04,12.56-.68,4.11-.04v.48Z"/>
    <path class="cls-14" d="M272.85,140.46v131.91H140.61v-1.47l.16-5.04,.31-4.73,.21-2.29,.42-3.67,.43-3.04,.77-4.5,.7-3.46,1.33-5.53,1.11-3.97,1.19-3.81,1.26-3.64,1.86-4.84,2.05-4.75,1.71-3.61,2.75-5.29,2.31-4.04,2.24-3.62,1.65-2.51,2.2-3.16,2.07-2.81,1.76-2.27,2.09-2.57,2.52-2.93,1.83-2.03,1.63-1.74,1.88-1.93,2-1.96,1.72-1.63,1.63-1.49,2.47-2.17,2.52-2.1,2.24-1.78,2.66-2.02,2.08-1.5,1.98-1.38,3.89-2.56,3.47-2.12,2.83-1.63,2.95-1.59,3.94-1.98,4.24-1.96,4.11-1.73,4.27-1.62,4.69-1.59,3.83-1.15,2.22-.61,3.59-.9,4.09-.9,3.88-.72,4.44-.68,6.48-.72,8.72-.47,2.85-.03v.33Z"/>
  </g>
  <g>
    <polygon class="cls-38" points="272.85 82.3 272.85 272.37 463.41 272.37 463.41 270.25 463.18 262.99 462.73 256.18 462.42 252.88 461.81 247.6 461.19 243.21 460.08 236.72 459.06 231.74 457.15 223.77 455.55 218.06 453.83 212.57 452.01 207.32 449.33 200.35 446.37 193.51 443.91 188.31 439.94 180.69 436.61 174.88 433.38 169.67 431.01 166.05 427.84 161.49 424.85 157.43 422.32 154.16 419.3 150.46 415.68 146.23 413.04 143.3 410.69 140.8 407.98 138.02 405.1 135.19 402.62 132.83 400.27 130.69 396.71 127.57 393.09 124.54 389.87 121.97 386.03 119.06 383.04 116.89 380.19 114.91 374.59 111.22 369.59 108.17 365.51 105.83 361.26 103.53 355.59 100.67 349.47 97.85 343.55 95.37 337.39 93.03 330.64 90.74 325.12 89.08 321.92 88.2 316.75 86.9 310.85 85.61 305.27 84.57 298.87 83.58 289.52 82.54 276.96 81.87 272.85 81.82 272.85 82.3"/>
    <polygon class="cls-38" points="272.85 140.94 272.85 272.37 404.61 272.37 404.61 270.9 404.46 265.88 404.14 261.18 403.93 258.89 403.51 255.24 403.08 252.21 402.31 247.72 401.61 244.27 400.29 238.77 399.18 234.82 397.99 231.02 396.74 227.39 394.88 222.58 392.84 217.84 391.13 214.25 388.39 208.98 386.08 204.96 383.85 201.36 382.21 198.85 380.02 195.7 377.95 192.9 376.2 190.63 374.12 188.07 371.61 185.15 369.78 183.13 368.16 181.4 366.29 179.47 364.3 177.51 362.58 175.89 360.96 174.4 358.5 172.24 355.99 170.15 353.76 168.38 351.11 166.36 349.05 164.87 347.07 163.49 343.2 160.94 339.74 158.83 336.92 157.21 333.99 155.62 330.06 153.65 325.83 151.7 321.74 149.98 317.48 148.36 312.81 146.78 309 145.63 306.78 145.02 303.21 144.13 299.13 143.23 295.27 142.51 290.84 141.83 284.38 141.11 275.69 140.64 272.85 140.61 272.85 140.94"/>
  </g>
  <path class="cls-21" d="M404.52,272.37h-131.91V140.13h1.48l5.04,.16,4.73,.31,2.29,.21,3.67,.42,3.04,.43,4.5,.77,3.46,.7,5.53,1.33,3.97,1.11,3.81,1.19,3.64,1.26,4.84,1.86,4.75,2.05,3.61,1.71,5.29,2.75,4.04,2.31,3.62,2.24,2.51,1.65,3.16,2.2,2.81,2.07,2.27,1.76,2.57,2.09,2.93,2.52,2.03,1.83,1.74,1.63,1.93,1.88,1.96,2,1.63,1.72,1.49,1.63,2.17,2.47,2.1,2.52,1.78,2.24,2.02,2.66,1.5,2.08,1.38,1.98,2.56,3.89,2.12,3.47,1.63,2.83,1.59,2.95,1.98,3.94,1.96,4.24,1.73,4.11,1.62,4.27,1.59,4.69,1.15,3.83,.61,2.22,.9,3.59,.9,4.09,.72,3.88,.68,4.44,.72,6.48,.47,8.72,.03,2.85h-.33Z"/>
  <g>
    <polygon class="cls-24" points="82.3 272.37 463.41 272.37 463.12 282.91 462.34 292.61 461.03 302.54 459.03 313.18 456.46 323.5 453.06 334.46 449.12 344.88 443.5 357.24 435.77 371.26 429.22 381.29 423.27 389.36 416.53 397.54 408.26 406.45 400.32 414.01 391.13 421.78 383.11 427.8 373.29 434.33 364.01 439.74 352.21 445.66 339.66 450.88 326.87 455.15 312.31 458.83 299.59 461.06 286.02 462.47 275.46 462.91 261.29 462.58 247.34 461.23 237.37 459.62 225.34 456.95 214.12 453.69 199.16 448.15 190.41 444.21 179.4 438.46 171.69 433.88 162.92 428.03 151.77 419.51 144.83 413.51 138.08 407.08 129.8 398.24 123.9 391.21 117.1 382.17 112.52 375.39 106.8 365.89 103.25 359.32 99.9 352.44 96.36 344.32 92.46 333.91 89.45 324.23 86.32 311.48 84.21 303.81 83.26 297.15 82.78 290.48 82.3 283.81 82.3 277.14 82.3 272.37"/>
    <polygon class="cls-29" points="138.6 272.37 407.11 272.37 406.9 279.8 406.36 286.63 405.43 293.63 404.02 301.12 402.22 308.39 399.82 316.11 397.04 323.46 393.08 332.17 387.64 342.05 383.02 349.11 378.83 354.8 374.08 360.56 368.25 366.83 362.66 372.16 356.19 377.64 350.53 381.88 343.62 386.48 337.08 390.3 328.76 394.47 319.92 398.14 310.91 401.15 300.65 403.74 291.69 405.32 282.13 406.31 274.69 406.61 264.71 406.38 254.88 405.43 247.85 404.3 239.38 402.42 231.47 400.12 220.93 396.22 214.77 393.44 207.01 389.39 201.58 386.16 195.4 382.04 187.54 376.04 182.66 371.82 177.9 367.28 172.07 361.06 167.91 356.1 163.12 349.73 159.89 344.95 155.86 338.26 153.36 333.63 151 328.79 148.51 323.07 145.76 315.73 143.63 308.91 141.43 299.93 139.94 294.53 139.27 289.83 138.94 285.13 138.6 280.43 138.6 275.73 138.6 272.37"/>
  </g>
  <g id="Secret">
    <polygon class="cls-30" points="272.61 272.61 159.61 430.61 145.61 419.61 116.3 387.77 98.23 358.78 87.61 331.24 82.3 309.31 77.61 282.11 77.61 272.37 272.61 272.61"/>
    <polygon class="cls-30" points="272.61 272.54 194.97 381.11 185.35 373.55 165.2 351.67 152.79 331.75 145.49 312.82 141.84 297.75 138.61 279.07 138.61 272.37 272.61 272.54"/>
  </g>
  <g/>
  <line class="cls-8" x1="272.61" y1="272.61" x2="159.61" y2="430.61"/>
  <polyline class="cls-9" points="468.1 272.37 77.61 272.37 272.85 272.37 272.85 77.61"/>
  <circle class="cls-7" cx="272.61" cy="272.61" r="134.5"/>
  <circle class="cls-8" cx="272.61" cy="272.61" r="9.5"/>
  <circle class="cls-13" cx="272.61" cy="272.61" r="198"/>
  <text class="cls-2" transform="translate(391.74 374.45) rotate(134.62)"><tspan x="0" y="0">R</tspan></text>
  <text class="cls-2" transform="translate(376.65 389.81) rotate(142.44)"><tspan x="0" y="0">A</tspan></text>
  <text class="cls-2" transform="translate(365.19 399.09) rotate(147.98)"><tspan x="0" y="0">T</tspan></text>
  <text class="cls-2" transform="translate(347 410.55) rotate(155.86)"><tspan x="0" y="0">H</tspan></text>
  <text class="cls-2" transform="translate(327.37 419.43) rotate(163.7)"><tspan x="0" y="0">E</tspan></text>
  <text class="cls-2" transform="translate(306.74 425.54) rotate(171.53)"><tspan x="0" y="0">R</tspan></text>
  <text class="cls-2" transform="translate(285.49 428.83) rotate(179.6)"><tspan x="0" y="0"> </tspan></text>
  <text class="cls-2" transform="translate(262.77 429.07) rotate(-172.06)"><tspan x="0" y="0"> </tspan></text>
  <text class="cls-2" transform="translate(240.25 426.02) rotate(-163.68)"><tspan x="0" y="0"> </tspan></text>
  <text class="cls-2" transform="translate(218.44 419.72) rotate(-155.34)"><tspan x="0" y="0"> </tspan></text>
  <text class="cls-2" transform="translate(197.73 410.3) rotate(-147.12)"><tspan x="0" y="0"> </tspan></text>
  <text class="cls-2" transform="translate(178.6 397.98) rotate(-139.06)"><tspan x="0" y="0">S</tspan></text>
  <text class="cls-2" transform="translate(162.3 383.95) rotate(-131.14)"><tspan x="0" y="0">e</tspan></text>
  <text class="cls-2" transform="translate(148.07 367.8) rotate(-123.11)"><tspan x="0" y="0">c</tspan></text>
  <text class="cls-2" transform="translate(135.95 349.41) rotate(-114.89)"><tspan x="0" y="0">r</tspan></text>
  <text class="cls-2" transform="translate(125.94 327.76) rotate(-106.44)"><tspan x="0" y="0">e</tspan></text>
  <text class="cls-2" transform="translate(119.73 307.17) rotate(-98.37)"><tspan x="0" y="0">t</tspan></text>
  <text class="cls-2" transform="translate(116.33 284.58) rotate(-90.06)"><tspan x="0" y="0"> </tspan></text>
  <text class="cls-2" transform="translate(116.22 261.85) rotate(-81.72)"><tspan x="0" y="0"> </tspan></text>
  <text class="cls-2" transform="translate(119.4 239.36) rotate(-73.34)"><tspan x="0" y="0"> </tspan></text>
  <text class="cls-2" transform="translate(125.88 217.58) rotate(-65.23)"><tspan x="0" y="0">D</tspan></text>
  <text class="cls-2" transform="translate(134.87 197.99) rotate(-57.55)"><tspan x="0" y="0">A</tspan></text>
  <text class="cls-2" transform="translate(146.01 180.28) rotate(-49.82)"><tspan x="0" y="0">R</tspan></text>
  <text class="cls-2" transform="translate(159.83 163.79) rotate(-41.9)"><tspan x="0" y="0">E</tspan></text>
  <text class="cls-2" transform="translate(175.75 149.34) rotate(-33.75)"><tspan x="0" y="0"> </tspan></text>
  <text class="cls-2" transform="translate(194.59 136.65) rotate(-25.42)"><tspan x="0" y="0"> </tspan></text>
  <text class="cls-2" transform="translate(215.09 126.81) rotate(-17.14)"><tspan x="0" y="0"> </tspan></text>
  <text class="cls-2" transform="translate(236.77 120.04) rotate(-8.88)"><tspan x="0" y="0"> </tspan></text>
  <text class="cls-2" transform="translate(259.21 116.45) rotate(-.59)"><tspan x="0" y="0"> </tspan></text>
  <text class="cls-2" transform="translate(281.92 116.12) rotate(7.75)"><tspan x="0" y="0"> </tspan></text>
  <text class="cls-2" transform="translate(304.45 119.1) rotate(16.12)"><tspan x="0" y="0"> </tspan></text>
  <text class="cls-2" transform="translate(326.32 125.39) rotate(24.25)"><tspan x="0" y="0">T</tspan></text>
  <text class="cls-2" transform="translate(345.97 134.11) rotate(32.27)"><tspan x="0" y="0">R</tspan></text>
  <text class="cls-2" transform="translate(364.27 145.52) rotate(39.87)"><tspan x="0" y="0">U</tspan></text>
  <text class="cls-2" transform="translate(380.83 159.25) rotate(47.79)"><tspan x="0" y="0">T</tspan></text>
  <text class="cls-2" transform="translate(395.34 175.13) rotate(55.71)"><tspan x="0" y="0">H</tspan></text>
  <text class="cls-3" transform="translate(407.4 193.29) rotate(61.5)"><tspan x="0" y="0"> </tspan></text>
  <text class="cls-3" transform="translate(412.17 202.03) rotate(65.15)"><tspan x="0" y="0"> </tspan></text>
  <text class="cls-3" transform="translate(416.37 211.06) rotate(68.78)"><tspan x="0" y="0"> </tspan></text>
  <text class="cls-3" transform="translate(419.99 220.35) rotate(72.42)"><tspan x="0" y="0"> </tspan></text>
  <text class="cls-3" transform="translate(423.02 229.85) rotate(76.05)"><tspan x="0" y="0"> </tspan></text>
  <text class="cls-3" transform="translate(425.44 239.52) rotate(79.68)"><tspan x="0" y="0"> </tspan></text>
  <text class="cls-3" transform="translate(427.24 249.32) rotate(83.32)"><tspan x="0" y="0"> </tspan></text>
  <text class="cls-3" transform="translate(428.42 259.21) rotate(86.95)"><tspan x="0" y="0"> </tspan></text>
  <text class="cls-3" transform="translate(428.96 269.17) rotate(90.61)"><tspan x="0" y="0"> </tspan></text>
  <text class="cls-3" transform="translate(428.88 279.13) rotate(94.26)"><tspan x="0" y="0"> </tspan></text>
  <text class="cls-3" transform="translate(428.15 289.06) rotate(97.93)"><tspan x="0" y="0"> </tspan></text>
  <text class="cls-3" transform="translate(426.79 298.93) rotate(101.61)"><tspan x="0" y="0"> </tspan></text>
  <text class="cls-3" transform="translate(424.81 308.69) rotate(105.29)"><tspan x="0" y="0"> </tspan></text>
  <text class="cls-3" transform="translate(422.19 318.32) rotate(108.97)"><tspan x="0" y="0"> </tspan></text>
  <text class="cls-3" transform="translate(418.97 327.74) rotate(112.63)"><tspan x="0" y="0"> </tspan></text>
  <text class="cls-3" transform="translate(415.14 336.97) rotate(116.29)"><tspan x="0" y="0"> </tspan></text>
  <text class="cls-3" transform="translate(410.75 345.91) rotate(119.9)"><tspan x="0" y="0"> </tspan></text>
  <text class="cls-3" transform="translate(405.8 354.54) rotate(123.48)"><tspan x="0" y="0"> </tspan></text>
  <text class="cls-3" transform="translate(400.31 362.87) rotate(127.11)"><tspan x="0" y="0"> </tspan></text>
  <text class="cls-3" transform="translate(394.31 370.83) rotate(130.76)"><tspan x="0" y="0"> </tspan></text>
  <text class="cls-3" transform="translate(387.82 378.39) rotate(134.43)"><tspan x="0" y="0"> </tspan></text>
  <text class="cls-3" transform="translate(380.86 385.51) rotate(138.11)"><tspan x="0" y="0"> </tspan></text>
  <text class="cls-3" transform="translate(373.46 392.17) rotate(141.78)"><tspan x="0" y="0"> </tspan></text>
  <text class="cls-3" transform="translate(365.64 398.36) rotate(145.46)"><tspan x="0" y="0"> </tspan></text>
  <text class="cls-3" transform="translate(357.45 404.01) rotate(149.13)"><tspan x="0" y="0"> </tspan></text>
  <text class="cls-3" transform="translate(348.89 409.15) rotate(152.79)"><tspan x="0" y="0"> </tspan></text>
  <text class="cls-3" transform="translate(340.03 413.72) rotate(156.44)"><tspan x="0" y="0"> </tspan></text>
  <text class="cls-3" transform="translate(330.91 417.72) rotate(160.07)"><tspan x="0" y="0"> </tspan></text>
  <text class="cls-3" transform="translate(321.55 421.13) rotate(163.7)"><tspan x="0" y="0"> </tspan></text>
  <text class="cls-3" transform="translate(311.99 423.94) rotate(167.33)"><tspan x="0" y="0"> </tspan></text>
  <text class="cls-3" transform="translate(302.27 426.15) rotate(170.96)"><tspan x="0" y="0"> </tspan></text>
  <text class="cls-3" transform="translate(292.42 427.73) rotate(174.6)"><tspan x="0" y="0"> </tspan></text>
  <text class="cls-3" transform="translate(282.5 428.68) rotate(178.25)"><tspan x="0" y="0"> </tspan></text>
  <text class="cls-3" transform="translate(272.54 429) rotate(-178.1)"><tspan x="0" y="0"> </tspan></text>
  <text class="cls-3" transform="translate(262.58 428.69) rotate(-174.44)"><tspan x="0" y="0"> </tspan></text>
  <text class="cls-3" transform="translate(252.68 427.75) rotate(-170.77)"><tspan x="0" y="0"> </tspan></text>
  <text class="cls-3" transform="translate(242.83 426.16) rotate(-167.09)"><tspan x="0" y="0"> </tspan></text>
  <text class="cls-3" transform="translate(233.11 423.95) rotate(-163.41)"><tspan x="0" y="0"> </tspan></text>
  <text class="cls-3" transform="translate(223.55 421.12) rotate(-159.73)"><tspan x="0" y="0"> </tspan></text>
  <text class="cls-3" transform="translate(214.2 417.69) rotate(-156.07)"><tspan x="0" y="0"> </tspan></text>
  <text class="cls-3" transform="translate(205.11 413.67) rotate(-152.44)"><tspan x="0" y="0"> </tspan></text>
  <text class="cls-3" transform="translate(196.37 409.06) rotate(-149.59)"><tspan x="0" y="0"> </tspan></text>
  <text class="cls-3" transform="translate(187.69 403.91) rotate(-145.24)"><tspan x="0" y="0"> </tspan></text>
  <text class="cls-3" transform="translate(179.51 398.25) rotate(-141.61)"><tspan x="0" y="0"> </tspan></text>
  <text class="cls-3" transform="translate(171.69 392.08) rotate(-137.95)"><tspan x="0" y="0"> </tspan></text>
  <text class="cls-3" transform="translate(164.28 385.42) rotate(-134.28)"><tspan x="0" y="0"> </tspan></text>
  <text class="cls-3" transform="translate(157.31 378.29) rotate(-130.59)"><tspan x="0" y="0"> </tspan></text>
  <text class="cls-3" transform="translate(150.82 370.75) rotate(-126.92)"><tspan x="0" y="0"> </tspan></text>
  <text class="cls-3" transform="translate(144.81 362.77) rotate(-123.24)"><tspan x="0" y="0"> </tspan></text>
  <text class="cls-3" transform="translate(139.34 354.47) rotate(-119.58)"><tspan x="0" y="0"> </tspan></text>
  <text class="cls-3" transform="translate(134.41 345.81) rotate(-115.93)"><tspan x="0" y="0"> </tspan></text>
  <text class="cls-3" transform="translate(130.04 336.86) rotate(-112.29)"><tspan x="0" y="0"> </tspan></text>
  <text class="cls-3" transform="translate(126.24 327.63) rotate(-108.65)"><tspan x="0" y="0"> </tspan></text>
  <text class="cls-3" transform="translate(123.04 318.19) rotate(-105.01)"><tspan x="0" y="0"> </tspan></text>
  <text class="cls-3" transform="translate(120.44 308.57) rotate(-101.38)"><tspan x="0" y="0"> </tspan></text>
  <text class="cls-3" transform="translate(118.45 298.8) rotate(-97.75)"><tspan x="0" y="0"> </tspan></text>
  <text class="cls-3" transform="translate(117.1 288.95) rotate(-94.12)"><tspan x="0" y="0"> </tspan></text>
  <text class="cls-3" transform="translate(116.36 279) rotate(-90.47)"><tspan x="0" y="0"> </tspan></text>
  <text class="cls-3" transform="translate(116.26 269.03) rotate(-86.81)"><tspan x="0" y="0"> </tspan></text>
  <text class="cls-3" transform="translate(116.8 259.06) rotate(-83.14)"><tspan x="0" y="0"> </tspan></text>
  <text class="cls-3" transform="translate(117.97 249.19) rotate(-79.47)"><tspan x="0" y="0"> </tspan></text>
  <text class="cls-3" transform="translate(119.78 239.39) rotate(-75.79)"><tspan x="0" y="0"> </tspan></text>
  <text class="cls-3" transform="translate(122.2 229.73) rotate(-72.12)"><tspan x="0" y="0"> </tspan></text>
  <text class="cls-3" transform="translate(125.24 220.25) rotate(-68.45)"><tspan x="0" y="0"> </tspan></text>
  <text class="cls-3" transform="translate(128.89 210.98) rotate(-64.8)"><tspan x="0" y="0"> </tspan></text>
  <text class="cls-3" transform="translate(133.12 201.94) rotate(-61.16)"><tspan x="0" y="0"> </tspan></text>
  <text class="cls-3" transform="translate(137.93 193.19) rotate(-57.57)"><tspan x="0" y="0"> </tspan></text>
  <text class="cls-3" transform="translate(143.24 184.79) rotate(-53.97)"><tspan x="0" y="0"> </tspan></text>
  <text class="cls-3" transform="translate(149.1 176.71) rotate(-50.32)"><tspan x="0" y="0"> </tspan></text>
  <text class="cls-3" transform="translate(155.44 169.03) rotate(-46.66)"><tspan x="0" y="0"> </tspan></text>
  <text class="cls-3" transform="translate(162.26 161.78) rotate(-42.98)"><tspan x="0" y="0"> </tspan></text>
  <text class="cls-3" transform="translate(169.54 154.97) rotate(-39.3)"><tspan x="0" y="0"> </tspan></text>
  <text class="cls-3" transform="translate(177.24 148.65) rotate(-35.62)"><tspan x="0" y="0"> </tspan></text>
  <text class="cls-3" transform="translate(185.34 142.83) rotate(-31.95)"><tspan x="0" y="0"> </tspan></text>
  <text class="cls-3" transform="translate(193.78 137.54) rotate(-28.29)"><tspan x="0" y="0"> </tspan></text>
  <text class="cls-3" transform="translate(202.56 132.8) rotate(-24.64)"><tspan x="0" y="0"> </tspan></text>
  <text class="cls-3" transform="translate(211.6 128.63) rotate(-21)"><tspan x="0" y="0"> </tspan></text>
  <text class="cls-3" transform="translate(220.91 125.04) rotate(-17.36)"><tspan x="0" y="0"> </tspan></text>
  <text class="cls-3" transform="translate(230.41 122.05) rotate(-13.73)"><tspan x="0" y="0"> </tspan></text>
  <text class="cls-3" transform="translate(240.09 119.67) rotate(-10.1)"><tspan x="0" y="0"> </tspan></text>
  <text class="cls-3" transform="translate(249.9 117.9) rotate(-6.47)"><tspan x="0" y="0"> </tspan></text>
  <text class="cls-3" transform="translate(259.8 116.76) rotate(-2.83)"><tspan x="0" y="0"> </tspan></text>
  <text class="cls-3" transform="translate(269.73 116.25) rotate(.81)"><tspan x="0" y="0"> </tspan></text>
  <text class="cls-3" transform="translate(279.72 116.38) rotate(4.48)"><tspan x="0" y="0"> </tspan></text>
  <text class="cls-3" transform="translate(289.66 117.14) rotate(8.15)"><tspan x="0" y="0"> </tspan></text>
  <text class="cls-3" transform="translate(299.52 118.54) rotate(11.83)"><tspan x="0" y="0"> </tspan></text>
  <text class="cls-3" transform="translate(309.28 120.56) rotate(15.51)"><tspan x="0" y="0"> </tspan></text>
  <text class="cls-3" transform="translate(318.87 123.21) rotate(19.18)"><tspan x="0" y="0"> </tspan></text>
  <text class="cls-3" transform="translate(328.28 126.46) rotate(22.85)"><tspan x="0" y="0"> </tspan></text>
  <text class="cls-3" transform="translate(337.48 130.32) rotate(26.49)"><tspan x="0" y="0"> </tspan></text>
  <text class="cls-3" transform="translate(346.43 134.77) rotate(30.12)"><tspan x="0" y="0"> </tspan></text>
  <text class="cls-3" transform="translate(355.05 139.75) rotate(33.7)"><tspan x="0" y="0"> </tspan></text>
  <text class="cls-3" transform="translate(363.35 145.26) rotate(37.32)"><tspan x="0" y="0"> </tspan></text>
  <text class="cls-3" transform="translate(371.28 151.29) rotate(40.97)"><tspan x="0" y="0"> </tspan></text>
  <text class="cls-3" transform="translate(378.81 157.8) rotate(44.64)"><tspan x="0" y="0"> </tspan></text>
  <text class="cls-3" transform="translate(385.91 164.78) rotate(48.32)"><tspan x="0" y="0"> </tspan></text>
  <text class="cls-3" transform="translate(392.55 172.22) rotate(52)"><tspan x="0" y="0"> </tspan></text>
  <text class="cls-3" transform="translate(398.69 180.05) rotate(55.67)"><tspan x="0" y="0"> </tspan></text>
  <text class="cls-3" transform="translate(404.33 188.28) rotate(59.34)"><tspan x="0" y="0"> </tspan></text>
  <text class="cls-3" transform="translate(409.42 196.83) rotate(62.99)"><tspan x="0" y="0"> </tspan></text>
  <text class="cls-3" transform="translate(413.96 205.7) rotate(66.64)"><tspan x="0" y="0"> </tspan></text>
  <text class="cls-3" transform="translate(417.93 214.86) rotate(70.28)"><tspan x="0" y="0"> </tspan></text>
  <text class="cls-3" transform="translate(421.31 224.24) rotate(73.92)"><tspan x="0" y="0"> </tspan></text>
  <text class="cls-3" transform="translate(424.09 233.81) rotate(77.55)"><tspan x="0" y="0"> </tspan></text>
  <text class="cls-3" transform="translate(426.26 243.54) rotate(81.18)"><tspan x="0" y="0"> </tspan></text>
  <text class="cls-3" transform="translate(427.8 253.37) rotate(84.81)"><tspan x="0" y="0"> </tspan></text>
  <text class="cls-3" transform="translate(428.72 263.32) rotate(88.46)"><tspan x="0" y="0"> </tspan></text>
  <text class="cls-3" transform="translate(429 273.28) rotate(92.11)"><tspan x="0" y="0"> </tspan></text>
  <text class="cls-3" transform="translate(428.65 283.21) rotate(95.77)"><tspan x="0" y="0"> </tspan></text>
  <text class="cls-3" transform="translate(427.67 293.14) rotate(99.45)"><tspan x="0" y="0"> </tspan></text>
  <text class="cls-3" transform="translate(426.05 302.96) rotate(103.12)"><tspan x="0" y="0"> </tspan></text>
  <text class="cls-3" transform="translate(423.81 312.67) rotate(106.8)"><tspan x="0" y="0"> </tspan></text>
  <text class="cls-3" transform="translate(420.95 322.2) rotate(110.47)"><tspan x="0" y="0"> </tspan></text>
  <text class="cls-3" transform="translate(417.48 331.54) rotate(114.13)"><tspan x="0" y="0"> </tspan></text>
  <text class="cls-3" transform="translate(413.41 340.66) rotate(117.77)"><tspan x="0" y="0"> </tspan></text>
  <text class="cls-4" transform="translate(386.81 370.08) rotate(134.57)"><tspan x="0" y="0">R</tspan></text>
  <text class="cls-4" transform="translate(372.37 384.81) rotate(142.4)"><tspan x="0" y="0">A</tspan></text>
  <text class="cls-4" transform="translate(361.39 393.7) rotate(147.94)"><tspan x="0" y="0">T</tspan></text>
  <text class="cls-4" transform="translate(343.95 404.71) rotate(155.82)"><tspan x="0" y="0">H</tspan></text>
  <text class="cls-4" transform="translate(325.15 413.23) rotate(163.67)"><tspan x="0" y="0">E</tspan></text>
  <text class="cls-4" transform="translate(305.37 419.1) rotate(171.51)"><tspan x="0" y="0">R</tspan></text>
  <text class="cls-4" transform="translate(285.01 422.26) rotate(179.58)"><tspan x="0" y="0"> </tspan></text>
  <text class="cls-4" transform="translate(263.24 422.5) rotate(-172.08)"><tspan x="0" y="0"> </tspan></text>
  <text class="cls-4" transform="translate(241.66 419.58) rotate(-163.7)"><tspan x="0" y="0"> </tspan></text>
  <text class="cls-4" transform="translate(220.77 413.56) rotate(-155.36)"><tspan x="0" y="0"> </tspan></text>
  <text class="cls-4" transform="translate(200.93 404.54) rotate(-147.14)"><tspan x="0" y="0"> </tspan></text>
  <text class="cls-4" transform="translate(182.58 392.73) rotate(-139.07)"><tspan x="0" y="0">S</tspan></text>
  <text class="cls-4" transform="translate(166.96 379.29) rotate(-131.15)"><tspan x="0" y="0">e</tspan></text>
  <text class="cls-4" transform="translate(153.32 363.82) rotate(-123.12)"><tspan x="0" y="0">c</tspan></text>
  <text class="cls-4" transform="translate(141.7 346.21) rotate(-114.9)"><tspan x="0" y="0">r</tspan></text>
  <text class="cls-4" transform="translate(132.12 325.47) rotate(-106.46)"><tspan x="0" y="0">e</tspan></text>
  <text class="cls-4" transform="translate(126.16 305.72) rotate(-98.37)"><tspan x="0" y="0">t</tspan></text>
  <text class="cls-4" transform="translate(122.89 284.08) rotate(-90.06)"><tspan x="0" y="0"> </tspan></text>
  <text class="cls-4" transform="translate(122.79 262.3) rotate(-81.72)"><tspan x="0" y="0"> </tspan></text>
  <text class="cls-4" transform="translate(125.84 240.75) rotate(-73.34)"><tspan x="0" y="0"> </tspan></text>
  <text class="cls-4" transform="translate(132.06 219.86) rotate(-65.22)"><tspan x="0" y="0">D</tspan></text>
  <text class="cls-4" transform="translate(140.65 201.13) rotate(-57.55)"><tspan x="0" y="0">A</tspan></text>
  <text class="cls-4" transform="translate(151.35 184.14) rotate(-49.81)"><tspan x="0" y="0">R</tspan></text>
  <text class="cls-4" transform="translate(164.59 168.34) rotate(-41.89)"><tspan x="0" y="0">E</tspan></text>
  <text class="cls-4" transform="translate(179.84 154.5) rotate(-33.74)"><tspan x="0" y="0"> </tspan></text>
  <text class="cls-4" transform="translate(197.89 142.34) rotate(-25.41)"><tspan x="0" y="0"> </tspan></text>
  <text class="cls-4" transform="translate(217.56 132.92) rotate(-17.12)"><tspan x="0" y="0"> </tspan></text>
  <text class="cls-4" transform="translate(238.34 126.43) rotate(-8.85)"><tspan x="0" y="0"> </tspan></text>
  <text class="cls-4" transform="translate(259.85 123) rotate(-.56)"><tspan x="0" y="0"> </tspan></text>
  <text class="cls-4" transform="translate(281.62 122.7) rotate(7.78)"><tspan x="0" y="0"> </tspan></text>
  <text class="cls-4" transform="translate(303.2 125.57) rotate(16.15)"><tspan x="0" y="0"> </tspan></text>
  <text class="cls-4" transform="translate(324.15 131.6) rotate(24.29)"><tspan x="0" y="0">T</tspan></text>
  <text class="cls-4" transform="translate(342.96 139.97) rotate(32.27)"><tspan x="0" y="0">R</tspan></text>
  <text class="cls-4" transform="translate(360.49 150.91) rotate(39.9)"><tspan x="0" y="0">U</tspan></text>
  <text class="cls-4" transform="translate(376.37 164.09) rotate(47.83)"><tspan x="0" y="0">T</tspan></text>
  <text class="cls-4" transform="translate(390.25 179.31) rotate(55.76)"><tspan x="0" y="0">H</tspan></text>
  <text class="cls-5" transform="translate(401.8 196.72) rotate(61.54)"><tspan x="0" y="0"> </tspan></text>
  <text class="cls-5" transform="translate(406.36 205.1) rotate(65.19)"><tspan x="0" y="0"> </tspan></text>
  <text class="cls-5" transform="translate(410.39 213.78) rotate(68.84)"><tspan x="0" y="0"> </tspan></text>
  <text class="cls-5" transform="translate(413.85 222.68) rotate(72.48)"><tspan x="0" y="0"> </tspan></text>
  <text class="cls-5" transform="translate(416.74 231.78) rotate(76.11)"><tspan x="0" y="0"> </tspan></text>
  <text class="cls-5" transform="translate(419.05 241.04) rotate(79.74)"><tspan x="0" y="0"> </tspan></text>
  <text class="cls-5" transform="translate(420.77 250.44) rotate(83.37)"><tspan x="0" y="0"> </tspan></text>
  <text class="cls-5" transform="translate(421.88 259.91) rotate(87.01)"><tspan x="0" y="0"> </tspan></text>
  <text class="cls-5" transform="translate(422.4 269.46) rotate(90.66)"><tspan x="0" y="0"> </tspan></text>
  <text class="cls-5" transform="translate(422.3 279.02) rotate(94.33)"><tspan x="0" y="0"> </tspan></text>
  <text class="cls-5" transform="translate(421.6 288.54) rotate(98)"><tspan x="0" y="0"> </tspan></text>
  <text class="cls-5" transform="translate(420.29 297.99) rotate(101.67)"><tspan x="0" y="0"> </tspan></text>
  <text class="cls-5" transform="translate(418.37 307.34) rotate(105.35)"><tspan x="0" y="0"> </tspan></text>
  <text class="cls-5" transform="translate(415.86 316.54) rotate(109.03)"><tspan x="0" y="0"> </tspan></text>
  <text class="cls-5" transform="translate(412.76 325.58) rotate(112.7)"><tspan x="0" y="0"> </tspan></text>
  <text class="cls-5" transform="translate(409.09 334.4) rotate(116.35)"><tspan x="0" y="0"> </tspan></text>
  <text class="cls-5" transform="translate(404.86 342.99) rotate(119.97)"><tspan x="0" y="0"> </tspan></text>
  <text class="cls-5" transform="translate(400.11 351.26) rotate(123.55)"><tspan x="0" y="0"> </tspan></text>
  <text class="cls-5" transform="translate(394.84 359.22) rotate(127.17)"><tspan x="0" y="0"> </tspan></text>
  <text class="cls-5" transform="translate(389.09 366.84) rotate(130.83)"><tspan x="0" y="0"> </tspan></text>
  <text class="cls-5" transform="translate(382.86 374.07) rotate(134.5)"><tspan x="0" y="0"> </tspan></text>
  <text class="cls-5" transform="translate(376.18 380.89) rotate(138.17)"><tspan x="0" y="0"> </tspan></text>
  <text class="cls-5" transform="translate(369.07 387.28) rotate(141.86)"><tspan x="0" y="0"> </tspan></text>
  <text class="cls-5" transform="translate(361.59 393.17) rotate(145.53)"><tspan x="0" y="0"> </tspan></text>
  <text class="cls-5" transform="translate(353.71 398.6) rotate(149.2)"><tspan x="0" y="0"> </tspan></text>
  <text class="cls-5" transform="translate(345.51 403.51) rotate(152.86)"><tspan x="0" y="0"> </tspan></text>
  <text class="cls-5" transform="translate(337.04 407.87) rotate(156.5)"><tspan x="0" y="0"> </tspan></text>
  <text class="cls-5" transform="translate(328.28 411.69) rotate(160.15)"><tspan x="0" y="0"> </tspan></text>
  <text class="cls-5" transform="translate(319.3 414.95) rotate(163.78)"><tspan x="0" y="0"> </tspan></text>
  <text class="cls-5" transform="translate(310.14 417.63) rotate(167.41)"><tspan x="0" y="0"> </tspan></text>
  <text class="cls-5" transform="translate(300.83 419.73) rotate(171.04)"><tspan x="0" y="0"> </tspan></text>
  <text class="cls-5" transform="translate(291.39 421.24) rotate(174.68)"><tspan x="0" y="0"> </tspan></text>
  <text class="cls-5" transform="translate(281.89 422.14) rotate(178.32)"><tspan x="0" y="0"> </tspan></text>
  <text class="cls-5" transform="translate(272.32 422.43) rotate(-178.02)"><tspan x="0" y="0"> </tspan></text>
  <text class="cls-5" transform="translate(262.81 422.12) rotate(-174.36)"><tspan x="0" y="0"> </tspan></text>
  <text class="cls-5" transform="translate(253.29 421.2) rotate(-170.68)"><tspan x="0" y="0"> </tspan></text>
  <text class="cls-5" transform="translate(243.88 419.67) rotate(-167.01)"><tspan x="0" y="0"> </tspan></text>
  <text class="cls-5" transform="translate(234.58 417.54) rotate(-163.33)"><tspan x="0" y="0"> </tspan></text>
  <text class="cls-5" transform="translate(225.41 414.82) rotate(-159.65)"><tspan x="0" y="0"> </tspan></text>
  <text class="cls-5" transform="translate(216.46 411.51) rotate(-155.99)"><tspan x="0" y="0"> </tspan></text>
  <text class="cls-5" transform="translate(207.73 407.64) rotate(-152.35)"><tspan x="0" y="0"> </tspan></text>
  <text class="cls-5" transform="translate(199.39 403.21) rotate(-149.59)"><tspan x="0" y="0"> </tspan></text>
  <text class="cls-5" transform="translate(191.06 398.26) rotate(-145.15)"><tspan x="0" y="0"> </tspan></text>
  <text class="cls-5" transform="translate(183.23 392.83) rotate(-141.52)"><tspan x="0" y="0"> </tspan></text>
  <text class="cls-5" transform="translate(175.75 386.9) rotate(-137.86)"><tspan x="0" y="0"> </tspan></text>
  <text class="cls-5" transform="translate(168.66 380.52) rotate(-134.19)"><tspan x="0" y="0"> </tspan></text>
  <text class="cls-5" transform="translate(161.98 373.66) rotate(-130.5)"><tspan x="0" y="0"> </tspan></text>
  <text class="cls-5" transform="translate(155.78 366.42) rotate(-126.82)"><tspan x="0" y="0"> </tspan></text>
  <text class="cls-5" transform="translate(150.05 358.8) rotate(-123.15)"><tspan x="0" y="0"> </tspan></text>
  <text class="cls-5" transform="translate(144.81 350.81) rotate(-119.49)"><tspan x="0" y="0"> </tspan></text>
  <text class="cls-5" transform="translate(140.1 342.51) rotate(-115.83)"><tspan x="0" y="0"> </tspan></text>
  <text class="cls-5" transform="translate(135.93 333.93) rotate(-112.19)"><tspan x="0" y="0"> </tspan></text>
  <text class="cls-5" transform="translate(132.3 325.08) rotate(-108.55)"><tspan x="0" y="0"> </tspan></text>
  <text class="cls-5" transform="translate(129.25 316.04) rotate(-104.92)"><tspan x="0" y="0"> </tspan></text>
  <text class="cls-5" transform="translate(126.77 306.79) rotate(-101.28)"><tspan x="0" y="0"> </tspan></text>
  <text class="cls-5" transform="translate(124.89 297.43) rotate(-97.65)"><tspan x="0" y="0"> </tspan></text>
  <text class="cls-5" transform="translate(123.6 287.98) rotate(-94.01)"><tspan x="0" y="0"> </tspan></text>
  <text class="cls-5" transform="translate(122.92 278.45) rotate(-90.36)"><tspan x="0" y="0"> </tspan></text>
  <text class="cls-5" transform="translate(122.84 268.9) rotate(-86.7)"><tspan x="0" y="0"> </tspan></text>
  <text class="cls-5" transform="translate(123.37 259.35) rotate(-83.03)"><tspan x="0" y="0"> </tspan></text>
  <text class="cls-5" transform="translate(124.51 249.89) rotate(-79.37)"><tspan x="0" y="0"> </tspan></text>
  <text class="cls-5" transform="translate(126.26 240.5) rotate(-75.68)"><tspan x="0" y="0"> </tspan></text>
  <text class="cls-5" transform="translate(128.6 231.25) rotate(-72)"><tspan x="0" y="0"> </tspan></text>
  <text class="cls-5" transform="translate(131.53 222.18) rotate(-68.34)"><tspan x="0" y="0"> </tspan></text>
  <text class="cls-5" transform="translate(135.05 213.27) rotate(-64.67)"><tspan x="0" y="0"> </tspan></text>
  <text class="cls-5" transform="translate(139.12 204.64) rotate(-61.05)"><tspan x="0" y="0"> </tspan></text>
  <text class="cls-5" transform="translate(143.72 196.29) rotate(-57.47)"><tspan x="0" y="0"> </tspan></text>
  <text class="cls-5" transform="translate(148.86 188.2) rotate(-53.84)"><tspan x="0" y="0"> </tspan></text>
  <text class="cls-5" transform="translate(154.48 180.48) rotate(-50.2)"><tspan x="0" y="0"> </tspan></text>
  <text class="cls-5" transform="translate(160.58 173.14) rotate(-46.53)"><tspan x="0" y="0"> </tspan></text>
  <text class="cls-5" transform="translate(167.12 166.21) rotate(-42.86)"><tspan x="0" y="0"> </tspan></text>
  <text class="cls-5" transform="translate(174.11 159.7) rotate(-39.18)"><tspan x="0" y="0"> </tspan></text>
  <text class="cls-5" transform="translate(181.52 153.65) rotate(-35.49)"><tspan x="0" y="0"> </tspan></text>
  <text class="cls-5" transform="translate(189.26 148.1) rotate(-31.83)"><tspan x="0" y="0"> </tspan></text>
  <text class="cls-5" transform="translate(197.38 143.05) rotate(-28.16)"><tspan x="0" y="0"> </tspan></text>
  <text class="cls-5" transform="translate(205.78 138.53) rotate(-24.52)"><tspan x="0" y="0"> </tspan></text>
  <text class="cls-5" transform="translate(214.48 134.55) rotate(-20.87)"><tspan x="0" y="0"> </tspan></text>
  <text class="cls-5" transform="translate(223.4 131.13) rotate(-17.24)"><tspan x="0" y="0"> </tspan></text>
  <text class="cls-5" transform="translate(232.51 128.29) rotate(-13.61)"><tspan x="0" y="0"> </tspan></text>
  <text class="cls-5" transform="translate(241.79 126.02) rotate(-9.98)"><tspan x="0" y="0"> </tspan></text>
  <text class="cls-5" transform="translate(251.19 124.35) rotate(-6.34)"><tspan x="0" y="0"> </tspan></text>
  <text class="cls-5" transform="translate(260.67 123.28) rotate(-2.7)"><tspan x="0" y="0"> </tspan></text>
  <text class="cls-5" transform="translate(270.22 122.82) rotate(.95)"><tspan x="0" y="0"> </tspan></text>
  <text class="cls-5" transform="translate(279.76 122.96) rotate(4.61)"><tspan x="0" y="0"> </tspan></text>
  <text class="cls-5" transform="translate(289.28 123.71) rotate(8.28)"><tspan x="0" y="0"> </tspan></text>
  <text class="cls-5" transform="translate(298.73 125.07) rotate(11.96)"><tspan x="0" y="0"> </tspan></text>
  <text class="cls-5" transform="translate(308.07 127.03) rotate(15.64)"><tspan x="0" y="0"> </tspan></text>
  <text class="cls-5" transform="translate(317.26 129.59) rotate(19.32)"><tspan x="0" y="0"> </tspan></text>
  <text class="cls-5" transform="translate(326.3 132.74) rotate(22.99)"><tspan x="0" y="0"> </tspan></text>
  <text class="cls-5" transform="translate(335.07 136.44) rotate(26.63)"><tspan x="0" y="0"> </tspan></text>
  <text class="cls-5" transform="translate(343.65 140.73) rotate(30.25)"><tspan x="0" y="0"> </tspan></text>
  <text class="cls-5" transform="translate(351.89 145.52) rotate(33.84)"><tspan x="0" y="0"> </tspan></text>
  <text class="cls-5" transform="translate(359.85 150.83) rotate(37.47)"><tspan x="0" y="0"> </tspan></text>
  <text class="cls-5" transform="translate(367.43 156.62) rotate(41.12)"><tspan x="0" y="0"> </tspan></text>
  <text class="cls-5" transform="translate(374.63 162.88) rotate(44.79)"><tspan x="0" y="0"> </tspan></text>
  <text class="cls-5" transform="translate(381.43 169.61) rotate(48.47)"><tspan x="0" y="0"> </tspan></text>
  <text class="cls-5" transform="translate(387.75 176.73) rotate(52.15)"><tspan x="0" y="0"> </tspan></text>
  <text class="cls-5" transform="translate(393.63 184.26) rotate(55.82)"><tspan x="0" y="0"> </tspan></text>
  <text class="cls-5" transform="translate(399.01 192.16) rotate(59.49)"><tspan x="0" y="0"> </tspan></text>
  <text class="cls-5" transform="translate(403.86 200.36) rotate(63.14)"><tspan x="0" y="0"> </tspan></text>
  <text class="cls-5" transform="translate(408.19 208.87) rotate(66.79)"><tspan x="0" y="0"> </tspan></text>
  <text class="cls-5" transform="translate(411.97 217.65) rotate(70.43)"><tspan x="0" y="0"> </tspan></text>
  <text class="cls-5" transform="translate(415.19 226.65) rotate(74.07)"><tspan x="0" y="0"> </tspan></text>
  <text class="cls-5" transform="translate(417.82 235.82) rotate(77.7)"><tspan x="0" y="0"> </tspan></text>
  <text class="cls-5" transform="translate(419.88 245.17) rotate(81.34)"><tspan x="0" y="0"> </tspan></text>
  <text class="cls-5" transform="translate(421.33 254.59) rotate(84.97)"><tspan x="0" y="0"> </tspan></text>
  <text class="cls-5" transform="translate(422.18 264.1) rotate(88.61)"><tspan x="0" y="0"> </tspan></text>
  <text class="cls-5" transform="translate(422.43 273.64) rotate(92.26)"><tspan x="0" y="0"> </tspan></text>
  <text class="cls-5" transform="translate(422.07 283.19) rotate(95.93)"><tspan x="0" y="0"> </tspan></text>
  <text class="cls-5" transform="translate(421.1 292.71) rotate(99.61)"><tspan x="0" y="0"> </tspan></text>
  <text class="cls-5" transform="translate(419.52 302.11) rotate(103.29)"><tspan x="0" y="0"> </tspan></text>
  <text class="cls-5" transform="translate(417.34 311.41) rotate(106.97)"><tspan x="0" y="0"> </tspan></text>
  <text class="cls-5" transform="translate(414.57 320.54) rotate(110.64)"><tspan x="0" y="0"> </tspan></text>
  <text class="cls-5" transform="translate(411.22 329.48) rotate(114.3)"><tspan x="0" y="0"> </tspan></text>
  <text class="cls-5" transform="translate(407.3 338.2) rotate(117.94)"><tspan x="0" y="0"> </tspan></text>
  <g class="cls-26">
    <ellipse cx="282.13" cy="362.71" rx="25.95" ry="27.54"/>
    <path d="M298.64,380.45c-3.17,1.95-6.99,2.31-10.43,.97-.47-.19-1.23,1.66-.65,1.89,3.97,1.55,8.38,1.14,12.04-1.12,.53-.34-.52-2.02-.95-1.74Z"/>
    <path d="M276.4,377.5c-3.17,1.95-6.99,2.31-10.43,.97-.47-.2-1.23,1.65-.65,1.89,3.97,1.55,8.38,1.14,12.04-1.12,.53-.34-.52-2.02-.95-1.74Z"/>
    <path d="M289.41,358.07c-4.75,1.3-9.93,.36-13.95-2.54-.99-.73,.87-3.39,1.86-2.66,2.66,1.91,6.88,3.23,11.25,2.05,1.17-.32,2.09,2.79,.84,3.15Z"/>
    <path d="M272.12,363.55c3.84,0,6.97,3.31,6.97,7.39,0,1.67-.53,3.21-1.41,4.45-1.57,.47-3.31,.73-5.16,.73-2.27,0-4.38-.4-6.19-1.08-.74-1.18-1.17-2.59-1.17-4.11,0-4.08,3.12-7.4,6.97-7.4Z"/>
    <path d="M271.16,376.08c-.39-.6-.63-1.32-.63-2.1,0-2.04,1.56-3.7,3.48-3.7s3.48,1.66,3.48,3.7c0,.57-.13,1.09-.34,1.57-1.43,.37-3,.58-4.65,.58-.46,0-.91-.02-1.35-.05Z"/>
    <path d="M292.15,363.55c3.84,0,6.97,3.31,6.97,7.39,0,1.67-.53,3.21-1.41,4.45-1.57,.47-3.31,.73-5.16,.73-2.27,0-4.38-.4-6.19-1.08-.74-1.18-1.17-2.59-1.17-4.11,0-4.08,3.12-7.4,6.97-7.4Z"/>
    <path d="M291.19,376.08c-.39-.6-.63-1.32-.63-2.1,0-2.04,1.56-3.7,3.48-3.7s3.48,1.66,3.48,3.7c0,.57-.13,1.09-.34,1.57-1.43,.37-3,.58-4.65,.58-.46,0-.91-.02-1.35-.05Z"/>
    <path d="M281.54,348.91c3.9-1,13.77-2.25,15.59-.31,.82,.87,.66,2.19,.4,4.43-.26,2.22,1.77,4.66,3.26,4.85,1.79,.24,2.81-1.14,2.18-3.14-1.39-4.38,1.25-5.8,1.37-9.06,.07-1.89,.62-5.01-2.06-9.03-3.03-4.55-8.33-4.6-10.16-4.54-2.16,.08-3.06,.17-3.56,1.2-.56,1.15-.3,1.43-.53,1.85-.51,.91-.76,.8-.99,1.82-.25,1.12,.5,1.75,.31,2.29-.37,1.13-1.31,.97-.37,3.69-3.16,.51-5.22,1.03-7.09,2.15-3.37,2.03-.43,4.31,1.65,3.78Z"/>
    <path d="M302.65,355.67c-.68-3.28-.86-4.41,.32-7.05,1.61-3.6,2.28-13.6-7.67-15.5-6.05-1.16-6.95,.42-6.69,2.09,.17,1.08-.69,1.5-.88,1.86-.65,1.23,.3,1.74,.32,2.23,.03,.92-.84,.89-.98,1.77-.25,1.61,1.55,2.15-.05,2.28-3.06,.24-5.13,.77-6.89,2.08-1.65,1.22-.51,3.63,1.72,3.12,5.22-1.17,12.93-2.6,15.61,0,1.2,1.17,.24,2.52,.35,5.17,.15,3.57,5.46,4.92,4.84,1.94Zm-7.03-24.17h0c3.19,.59,5.74,2.22,7.39,4.69,2.55,3.83,2.36,6.89,2.24,8.91-.01,.23-.03,.44-.03,.64-.05,1.41-.51,2.48-.95,3.52-.65,1.53-1.22,2.85-.46,5.24,.41,1.3,.26,2.51-.42,3.33-.61,.73-1.58,1.06-2.67,.92-.02,0-.11-.02-.13-.02-1.98-.37-4.21-3.18-3.9-5.81,.25-2.14,.35-3.18-.16-3.72-.09-.1-.41-.35-1.4-.53-3.51-.65-10.44,.35-13.33,1.1-.48,.12-1.03,.14-1.56,.04-1.37-.26-2.45-1.17-2.68-2.27-.13-.66-.07-1.95,1.89-3.14,1.82-1.1,3.79-1.64,6.44-2.1-.71-1.95,1.03-2.7,.68-3.42-.51-1.06-.36-1.98,.68-3.01,.75-.74-.15-1.57,.55-2.92,.79-1.52,2.23-1.6,4.29-1.68,1.26-.04,2.41,.04,3.54,.25Z"/>
  </g>
  <g>
    <ellipse class="cls-32" cx="272.51" cy="354.22" rx="25.95" ry="27.54"/>
    <path class="cls-12" d="M289.02,371.95c-3.17,1.95-6.99,2.31-10.43,.97-.47-.19-1.23,1.66-.65,1.89,3.97,1.55,8.38,1.14,12.04-1.12,.53-.34-.52-2.02-.95-1.74Z"/>
    <path class="cls-12" d="M266.78,369c-3.17,1.95-6.99,2.31-10.43,.97-.47-.2-1.23,1.65-.65,1.89,3.97,1.55,8.38,1.14,12.04-1.12,.53-.34-.52-2.02-.95-1.74Z"/>
    <path class="cls-1" d="M279.79,349.57c-4.75,1.3-9.93,.36-13.95-2.54-.99-.73,.87-3.39,1.86-2.66,2.66,1.91,6.88,3.23,11.25,2.05,1.17-.32,2.09,2.79,.84,3.15Z"/>
    <path class="cls-11" d="M262.5,355.06c3.84,0,6.97,3.31,6.97,7.39,0,1.67-.53,3.21-1.41,4.45-1.57,.47-3.31,.73-5.16,.73-2.27,0-4.38-.4-6.19-1.08-.74-1.18-1.17-2.59-1.17-4.11,0-4.08,3.12-7.4,6.97-7.4Z"/>
    <path class="cls-1" d="M261.54,367.58c-.39-.6-.63-1.32-.63-2.1,0-2.04,1.56-3.7,3.48-3.7s3.48,1.66,3.48,3.7c0,.57-.13,1.09-.34,1.57-1.43,.37-3,.58-4.65,.58-.46,0-.91-.02-1.35-.05Z"/>
    <path class="cls-11" d="M282.53,355.06c3.84,0,6.97,3.31,6.97,7.39,0,1.67-.53,3.21-1.41,4.45-1.57,.47-3.31,.73-5.16,.73-2.27,0-4.38-.4-6.19-1.08-.74-1.18-1.17-2.59-1.17-4.11,0-4.08,3.12-7.4,6.97-7.4Z"/>
    <path class="cls-1" d="M281.57,367.58c-.39-.6-.63-1.32-.63-2.1,0-2.04,1.56-3.7,3.48-3.7s3.48,1.66,3.48,3.7c0,.57-.13,1.09-.34,1.57-1.43,.37-3,.58-4.65,.58-.46,0-.91-.02-1.35-.05Z"/>
    <path class="cls-11" d="M271.92,340.41c3.9-1,13.77-2.25,15.59-.31,.82,.87,.66,2.19,.4,4.43-.26,2.22,1.77,4.66,3.26,4.85,1.79,.24,2.81-1.14,2.18-3.14-1.39-4.38,1.25-5.8,1.37-9.06,.07-1.89,.62-5.01-2.06-9.03-3.03-4.55-8.33-4.6-10.16-4.54-2.16,.08-3.06,.17-3.56,1.2-.56,1.15-.3,1.43-.53,1.85-.51,.91-.76,.8-.99,1.82-.25,1.12,.5,1.75,.31,2.29-.37,1.13-1.31,.97-.37,3.69-3.16,.51-5.22,1.03-7.09,2.15-3.37,2.03-.43,4.31,1.65,3.78Z"/>
    <path class="cls-16" d="M293.03,347.17c-.68-3.28-.86-4.41,.32-7.05,1.61-3.6,2.28-13.6-7.67-15.5-6.05-1.16-6.95,.42-6.69,2.09,.17,1.08-.69,1.5-.88,1.86-.65,1.23,.3,1.74,.32,2.23,.03,.92-.84,.89-.98,1.77-.25,1.61,1.55,2.15-.05,2.28-3.06,.24-5.13,.77-6.89,2.08-1.65,1.22-.51,3.63,1.72,3.12,5.22-1.17,12.93-2.6,15.61,0,1.2,1.17,.24,2.52,.35,5.17,.15,3.57,5.46,4.92,4.84,1.94Zm-7.03-24.17h0c3.19,.59,5.74,2.22,7.39,4.69,2.55,3.83,2.36,6.89,2.24,8.91-.01,.23-.03,.44-.03,.64-.05,1.41-.51,2.48-.95,3.52-.65,1.53-1.22,2.85-.46,5.24,.41,1.3,.26,2.51-.42,3.33-.61,.73-1.58,1.06-2.67,.92-.02,0-.11-.02-.13-.02-1.98-.37-4.21-3.18-3.9-5.81,.25-2.14,.35-3.18-.16-3.72-.09-.1-.41-.35-1.4-.53-3.51-.65-10.44,.35-13.33,1.1-.48,.12-1.03,.14-1.56,.04-1.37-.26-2.45-1.17-2.68-2.27-.13-.66-.07-1.95,1.89-3.14,1.82-1.1,3.79-1.64,6.44-2.1-.71-1.95,1.03-2.7,.68-3.42-.51-1.06-.36-1.98,.68-3.01,.75-.74-.15-1.57,.55-2.92,.79-1.52,2.23-1.6,4.29-1.68,1.26-.04,2.41,.04,3.54,.25Z"/>
  </g>
  <g class="cls-28">
    <ellipse cx="341.87" cy="215.52" rx="29.51" ry="27.8" transform="translate(-52.26 304.86) rotate(-45)"/>
    <path d="M343.72,247.41c0,.18-.16,.33-.34,.34l-4.93,.14c-.18,0-.33-.14-.32-.32l.47-4.77,4.93-.15,.19,4.75Zm.33-13.18l-5.46,.16c-.2,0-.38,.18-.38,.39l-1.66,14.19c0,.2,.15,.37,.36,.36l7.95-.23c.21,0,.38-.18,.39-.39l-.82-14.12c0-.21-.16-.37-.36-.36Z"/>
    <path d="M345.14,232.69l-2.1-2.1c-.14-.14-.37-.15-.51-.01l-1.39,1.39c.14-.14,.13-.37-.01-.51l-2.1-2.1c-.14-.14-.37-.15-.51-.01l1.39-1.39c.14-.14,.13-.37-.01-.51l-2.1-2.1c-.14-.14-.37-.15-.51-.01l-1.39,1.39c.14-.14,.13-.37-.01-.51l-2.1-2.1c-.14-.14-.37-.15-.51-.01l1.39-1.39c.14-.14,.13-.37-.01-.51l-2.1-2.1c-.14-.14-.37-.15-.51-.01l-1.39,1.39c.14-.14,.13-.37-.01-.51l-2.1-2.1c-.14-.14-.37-.15-.51-.01l1.39-1.39c.14-.14,.13-.37-.01-.51l-2.1-2.1c-.14-.14-.37-.15-.51-.01l-1.39,1.39c.14-.14,.13-.37-.01-.51l-2.1-2.1c-.14-.14-.37-.15-.51-.01l-3.67,3.67c-.14,.14-.13,.37,.01,.51l2.1,2.1c.14,.14,.37,.15,.51,.01l1.39-1.39c-.14,.14-.13,.37,.01,.51l2.1,2.1c.14,.14,.37,.15,.51,.01l-1.39,1.39c-.14,.14-.13,.37,.01,.51l2.1,2.1c.14,.14,.37,.15,.51,.01l1.39-1.39c-.14,.14-.13,.37,.01,.51l2.1,2.1c.14,.14,.37,.15,.51,.01l-1.39,1.39c-.14,.14-.13,.37,.01,.51l2.1,2.1c.14,.14,.37,.15,.51,.01l1.39-1.39c-.14,.14-.13,.37,.01,.51l2.1,2.1c.14,.14,.37,.15,.51,.01l-1.39,1.39c-.14,.14-.13,.37,.01,.51l2.1,2.1c.14,.14,.37,.15,.51,.01l1.39-1.39c-.14,.14-.13,.37,.01,.51l2.1,2.1c.14,.14,.37,.15,.51,.01l3.67-3.67c.14-.14,.13-.37-.01-.51Z"/>
    <ellipse cx="336.42" cy="205.89" rx="4.92" ry="4.63" transform="translate(-47.05 298.19) rotate(-45)"/>
    <path d="M354.97,217.49c1.81,1.81,1.72,4.83-.2,6.75s-4.94,2.01-6.75,.2c-1.81-1.81-1.72-4.83,.2-6.75s4.94-2.01,6.75-.2Z"/>
  </g>
  <g>
    <ellipse class="cls-32" cx="330.95" cy="212.37" rx="29.51" ry="27.8" transform="translate(-53.23 296.22) rotate(-45)"/>
    <path class="cls-25" d="M332.79,244.26c0,.18-.16,.33-.34,.34l-4.93,.14c-.18,0-.33-.14-.32-.32l.47-4.77,4.93-.15,.19,4.75Zm.33-13.18l-5.46,.16c-.2,0-.38,.18-.38,.39l-1.66,14.19c0,.2,.15,.37,.36,.36l7.95-.23c.21,0,.38-.18,.39-.39l-.82-14.12c0-.21-.16-.37-.36-.36Z"/>
    <path class="cls-25" d="M334.22,229.55l-2.1-2.1c-.14-.14-.37-.15-.51-.01l-1.39,1.39c.14-.14,.13-.37-.01-.51l-2.1-2.1c-.14-.14-.37-.15-.51-.01l1.39-1.39c.14-.14,.13-.37-.01-.51l-2.1-2.1c-.14-.14-.37-.15-.51-.01l-1.39,1.39c.14-.14,.13-.37-.01-.51l-2.1-2.1c-.14-.14-.37-.15-.51-.01l1.39-1.39c.14-.14,.13-.37-.01-.51l-2.1-2.1c-.14-.14-.37-.15-.51-.01l-1.39,1.39c.14-.14,.13-.37-.01-.51l-2.1-2.1c-.14-.14-.37-.15-.51-.01l1.39-1.39c.14-.14,.13-.37-.01-.51l-2.1-2.1c-.14-.14-.37-.15-.51-.01l-1.39,1.39c.14-.14,.13-.37-.01-.51l-2.1-2.1c-.14-.14-.37-.15-.51-.01l-3.67,3.67c-.14,.14-.13,.37,.01,.51l2.1,2.1c.14,.14,.37,.15,.51,.01l1.39-1.39c-.14,.14-.13,.37,.01,.51l2.1,2.1c.14,.14,.37,.15,.51,.01l-1.39,1.39c-.14,.14-.13,.37,.01,.51l2.1,2.1c.14,.14,.37,.15,.51,.01l1.39-1.39c-.14,.14-.13,.37,.01,.51l2.1,2.1c.14,.14,.37,.15,.51,.01l-1.39,1.39c-.14,.14-.13,.37,.01,.51l2.1,2.1c.14,.14,.37,.15,.51,.01l1.39-1.39c-.14,.14-.13,.37,.01,.51l2.1,2.1c.14,.14,.37,.15,.51,.01l-1.39,1.39c-.14,.14-.13,.37,.01,.51l2.1,2.1c.14,.14,.37,.15,.51,.01l1.39-1.39c-.14,.14-.13,.37,.01,.51l2.1,2.1c.14,.14,.37,.15,.51,.01l3.67-3.67c.14-.14,.13-.37-.01-.51Z"/>
    <ellipse class="cls-1" cx="325.5" cy="202.75" rx="4.92" ry="4.63" transform="translate(-48.03 289.55) rotate(-45)"/>
    <ellipse class="cls-1" cx="340.57" cy="217.82" rx="4.92" ry="4.63" transform="translate(-54.27 304.61) rotate(-45)"/>
  </g>
  <g class="cls-22">
    <ellipse cx="204.43" cy="210.79" rx="27.8" ry="29.51" transform="translate(-89.17 206.29) rotate(-45)"/>
    <path d="M179.27,205.74c-5.52,1.81-11.7,.37-11.7,.37,9.02,11.05,15.32,9.63,17.55,7.49,2.99-2.86,.52-9.95-5.85-7.86Z"/>
    <path d="M199.38,185.63c1.81-5.52,.37-11.7,.37-11.7,11.05,9.02,9.62,15.32,7.49,17.55-2.86,2.99-9.95,.52-7.86-5.85Z"/>
    <path d="M202.68,228.29c2.63-.61,4.81-1.56,6.83-2.76,2.01-1.19,3.79-2.63,5.41-4.25,1.61-1.63,3.05-3.41,4.24-5.42,1.2-2.01,2.15-4.19,2.77-6.82,1.19,2.58,1.14,5.61,.37,8.29-.78,2.7-2.29,5.13-4.24,7.08-1.96,1.95-4.39,3.46-7.08,4.24-2.67,.77-5.7,.83-8.28-.36Z"/>
    <path d="M214.08,193.84c4.32,1.68,6.66,6.47,5.23,10.69-1.43,4.23-6.09,6.29-10.4,4.61-3.25-1.27,1.92-16.57,5.17-15.3Z"/>
    <path d="M213.25,196.32c2.92,1.14,4.5,4.37,3.54,7.23-.97,2.86-4.11,4.25-7.03,3.11-1.85-.72,1.64-11.07,3.49-10.34Z"/>
    <path d="M215.36,193.02c-1.1,1.35-2,2.64-2.76,4-.76,1.35-1.38,2.74-1.87,4.19-.49,1.45-.86,2.93-1.08,4.49-.23,1.56-.3,3.16-.25,4.96-1.18-1.44-1.8-3.28-2.01-5.11-.2-1.83,.03-3.71,.62-5.4,.58-1.71,1.53-3.28,2.77-4.55,1.25-1.26,2.81-2.25,4.57-2.56Z"/>
    <path d="M187.49,220.44c1.68,4.32,6.47,6.66,10.69,5.23,4.22-1.43,6.29-6.08,4.6-10.4-1.27-3.25-16.57,1.92-15.3,5.17Z"/>
    <path d="M189.96,219.6c1.14,2.92,4.37,4.5,7.23,3.54,2.86-.97,4.25-4.12,3.12-7.03-.72-1.85-11.07,1.64-10.34,3.49Z"/>
    <path d="M186.66,221.72c.32-1.76,1.3-3.32,2.56-4.57,1.27-1.25,2.84-2.19,4.55-2.77,1.7-.59,3.57-.82,5.4-.62,1.83,.2,3.67,.83,5.11,2-1.8-.05-3.4,.02-4.96,.25-1.56,.23-3.04,.59-4.49,1.08-1.45,.49-2.84,1.11-4.19,1.87-1.36,.76-2.64,1.66-4,2.76Z"/>
  </g>
  <g>
    <ellipse class="cls-33" cx="214.94" cy="211.98" rx="27.8" ry="29.51" transform="translate(-86.94 214.07) rotate(-45)"/>
    <path class="cls-32" d="M189.78,206.93c-5.52,1.81-11.7,.37-11.7,.37,9.02,11.05,15.32,9.63,17.55,7.49,2.99-2.86,.52-9.95-5.85-7.86Z"/>
    <path class="cls-32" d="M209.89,186.82c1.81-5.52,.37-11.7,.37-11.7,11.05,9.02,9.62,15.32,7.49,17.55-2.86,2.99-9.95,.52-7.86-5.85Z"/>
    <path class="cls-23" d="M213.19,229.48c2.63-.61,4.81-1.56,6.83-2.76,2.01-1.19,3.79-2.63,5.41-4.25,1.61-1.63,3.05-3.41,4.24-5.42,1.2-2.01,2.15-4.19,2.77-6.82,1.19,2.58,1.14,5.61,.37,8.29-.78,2.7-2.29,5.13-4.24,7.08-1.96,1.95-4.39,3.46-7.08,4.24-2.67,.77-5.7,.83-8.28-.36Z"/>
    <path class="cls-11" d="M224.59,195.04c4.32,1.68,6.66,6.47,5.23,10.69-1.43,4.23-6.09,6.29-10.4,4.61-3.25-1.27,1.92-16.57,5.17-15.3Z"/>
    <path class="cls-23" d="M223.75,197.52c2.92,1.14,4.5,4.37,3.54,7.23-.97,2.86-4.11,4.25-7.03,3.11-1.85-.72,1.64-11.07,3.49-10.34Z"/>
    <path class="cls-23" d="M225.87,194.21c-1.1,1.35-2,2.64-2.76,4-.76,1.35-1.38,2.74-1.87,4.19-.49,1.45-.86,2.93-1.08,4.49-.23,1.56-.3,3.16-.25,4.96-1.18-1.44-1.8-3.28-2.01-5.11-.2-1.83,.03-3.71,.62-5.4,.58-1.71,1.53-3.28,2.77-4.55,1.25-1.26,2.81-2.25,4.57-2.56Z"/>
    <path class="cls-11" d="M197.99,221.63c1.68,4.32,6.47,6.66,10.69,5.23,4.22-1.43,6.29-6.08,4.6-10.4-1.27-3.25-16.57,1.92-15.3,5.17Z"/>
    <path class="cls-23" d="M200.47,220.8c1.14,2.92,4.37,4.5,7.23,3.54,2.86-.97,4.25-4.12,3.12-7.04-.72-1.85-11.07,1.64-10.34,3.49Z"/>
    <path class="cls-23" d="M197.17,222.91c.32-1.76,1.3-3.32,2.56-4.57,1.27-1.25,2.84-2.19,4.55-2.77,1.7-.59,3.57-.82,5.4-.62,1.83,.2,3.67,.83,5.11,2-1.8-.05-3.4,.02-4.96,.25-1.56,.23-3.04,.59-4.49,1.08-1.45,.49-2.84,1.11-4.19,1.87-1.36,.76-2.64,1.66-4,2.76Z"/>
  </g>
  <g class="cls-34">
    <path d="M218.96,312.05l-23.32-29.96c-16.14,12.56-17.8,17.55-7.93,30.23,9.87,12.68,15.12,12.29,31.25-.27h0Z"/>
    <path d="M193.1,286.09c.7-.39,1.39-.71,1.86-.8,.84-.15,1.7,.25,1.7,.25,0,0-1.34,.76-2.99,2.15-9.45,8.46-6.24,6.91,2.45,18.08,8.7,11.17,15.52,15.94,22.25,10.7,4.88-3.8,3.52-10.18,3.52-10.18,3.92-4.9,4.05-10.3,2.35-17.29-.51-2.12-3.01-5.32-4.94-6.35-7.05-3.73-12.74-4.79-19.19-1-1.98-2.21-4.06-1.72-5.92-.26-2.99,2.33-2.17,3.87-1.07,4.71h0Z"/>
    <path d="M210.67,286.11c1.98-1.54,4.98,.29,7,2.88s3.05,5.95,1.07,7.49c0,0-.49,.38-.9-.13l-7.26-9.33c-.4-.52,.09-.91,.09-.91Z"/>
    <path d="M197.63,293.49c-2.24-2.88-2.1-4.85-1.06-5.65,1.04-.81,2.53-1.97,5.49,1.84,2.87,3.68,2.86,4.61,1.3,5.83-1.04,.81-3.49,.87-5.73-2.01h0Z"/>
    <circle cx="199.65" cy="292.37" r="3.29" transform="translate(-46.61 38.02) rotate(-9.75)"/>
    <path d="M200.3,293.27c.48-.37,.57-1.06,.19-1.54s-1.06-.57-1.54-.19-.57,1.06-.19,1.54,1.06,.57,1.54,.19Z"/>
    <path d="M196.55,287.85c-4.04,3.14,2.24,11.2,6.86,7.62-4.35,1.54-8.84-4.23-6.86-7.62Z"/>
    <path d="M212.49,293.03c1.88,2.41,1.08,4.96,.15,3.76l-3.75-4.82c-.94-1.21,1.73-1.35,3.61,1.06h0Z"/>
    <path d="M209.44,310.17c2.61,3.35,4.85,3.74,6.06,2.8s2.94-2.28-.5-6.7-4.37-4.54-6.18-3.13c-1.21,.94-1.98,3.68,.63,7.03Z"/>
    <circle cx="211.24" cy="308.2" r="3.81"/>
    <path d="M210.44,307.23c.56-.43,1.35-.34,1.79,.22s.34,1.35-.22,1.79-1.35,.34-1.79-.22c-.42-.56-.34-1.35,.22-1.79Z"/>
    <path d="M215.46,312.99c-4.69,3.65-11.97-5.72-6.62-9.88-2.97,4.46,2.24,11.15,6.62,9.88Z"/>
    <g class="cls-17">
      <circle cx="211.77" cy="308.54" r="10.12" transform="translate(-143.85 425.06) rotate(-73.68)"/>
    </g>
    <rect x="222.47" y="305.62" width="2" height="2.61" transform="translate(-40.04 33.61) rotate(-7.9)"/>
    <path d="M213.04,317.7c-5.06,.7-9.72-2.83-10.42-7.89-.7-5.06,2.83-9.72,7.89-10.42s9.73,2.82,10.42,7.89c.7,5.06-2.83,9.72-7.89,10.42Zm9.87-10.7c-.86-6.15-6.53-10.45-12.68-9.59s-10.45,6.53-9.59,12.68,6.53,10.45,12.68,9.59c6.15-.86,10.45-6.53,9.59-12.68Z"/>
    <rect x="224.05" y="303.84" width="9.45" height="4.77" transform="translate(-39.85 34.28) rotate(-7.89)"/>
    <path d="M234.13,308.55c.78-.1-.06-6.21-.84-6.09l-.47,.06c-.78,.1,.06,6.21,.84,6.09l.48-.06h0Z"/>
    <path d="M182.13,292.82c-2.2,12.23-17.2,13.3-10.11,15.96,5.18,1.95,8.62,5.15,10.65,7.76s4.29,6.73,4.91,12.23c.85,7.52,5.56-6.74,17.95-5.89,8.56,3.39,8.34,4.08,9.24,3.37,.49-.38,4.72-4.1-11.89-25.45-16.62-21.35-21.26-18.16-21.75-17.78-.9,.7-.19,.66,1,9.79h0Z"/>
    <path d="M195.13,306.84c-5.39-6.92-13.02-14.01-13.02-14.01-.23,1.28-.65,2.47-1.19,3.57,3.08,2.97,6.78,7.08,11.21,12.77,4.43,5.69,7.51,10.29,9.63,14,1.2-.25,2.45-.37,3.75-.28,0,0-5-9.14-10.38-16.06h0Z"/>
  </g>
  <g>
    <path class="cls-6" d="M229.73,310.44l-23.32-29.96c-16.14,12.56-17.8,17.55-7.93,30.23,9.87,12.68,15.12,12.29,31.25-.27h0Z"/>
    <path class="cls-32" d="M203.87,284.48c.7-.39,1.39-.71,1.86-.8,.84-.15,1.7,.25,1.7,.25,0,0-1.34,.76-2.99,2.15-9.45,8.46-6.24,6.91,2.45,18.08,8.7,11.17,15.52,15.94,22.25,10.7,4.88-3.8,3.52-10.18,3.52-10.18,3.92-4.9,4.05-10.3,2.35-17.29-.51-2.12-3.01-5.32-4.94-6.35-7.05-3.73-12.74-4.79-19.19-1-1.98-2.21-4.06-1.72-5.92-.26-2.99,2.33-2.17,3.87-1.07,4.71h0Z"/>
    <path class="cls-37" d="M221.44,284.5c1.98-1.54,4.98,.29,7,2.88s3.05,5.95,1.07,7.49c0,0-.49,.38-.9-.13l-7.26-9.33c-.4-.52,.09-.91,.09-.91Z"/>
    <path class="cls-15" d="M208.4,291.88c-2.24-2.88-2.1-4.85-1.06-5.65,1.04-.81,2.53-1.97,5.49,1.84,2.87,3.68,2.86,4.61,1.3,5.83-1.04,.81-3.49,.87-5.73-2.01h0Z"/>
    <circle class="cls-1" cx="210.42" cy="290.76" r="3.29" transform="translate(-46.18 39.82) rotate(-9.75)"/>
    <path class="cls-35" d="M211.07,291.66c.48-.37,.57-1.06,.19-1.54s-1.06-.57-1.54-.19-.57,1.06-.19,1.54,1.06,.57,1.54,.19Z"/>
    <path class="cls-1" d="M207.32,286.24c-4.04,3.14,2.24,11.2,6.86,7.62-4.35,1.54-8.84-4.23-6.86-7.62Z"/>
    <path class="cls-27" d="M223.26,291.42c1.88,2.41,1.08,4.96,.15,3.76l-3.75-4.82c-.94-1.21,1.73-1.35,3.61,1.06h0Z"/>
    <path class="cls-15" d="M220.21,308.56c2.61,3.35,4.85,3.74,6.06,2.8s2.94-2.28-.5-6.7-4.37-4.54-6.18-3.13c-1.21,.94-1.98,3.68,.63,7.03Z"/>
    <circle class="cls-1" cx="222.01" cy="306.59" r="3.81"/>
    <path class="cls-35" d="M221.21,305.62c.56-.43,1.35-.34,1.79,.22s.34,1.35-.22,1.79-1.35,.34-1.79-.22c-.42-.56-.34-1.35,.22-1.79Z"/>
    <path class="cls-1" d="M226.23,311.38c-4.69,3.65-11.97-5.72-6.62-9.88-2.97,4.46,2.24,11.15,6.62,9.88Z"/>
    <g class="cls-17">
      <circle class="cls-15" cx="222.54" cy="306.93" r="10.12" transform="translate(-134.57 434.24) rotate(-73.68)"/>
    </g>
    <rect class="cls-31" x="233.24" y="304.01" width="2" height="2.61" transform="translate(-39.72 35.07) rotate(-7.9)"/>
    <path class="cls-31" d="M223.81,316.09c-5.06,.7-9.72-2.83-10.42-7.89-.7-5.06,2.83-9.72,7.89-10.42s9.73,2.82,10.42,7.89c.7,5.06-2.83,9.72-7.89,10.42Zm9.87-10.7c-.86-6.15-6.53-10.45-12.68-9.59s-10.45,6.53-9.59,12.68,6.53,10.45,12.68,9.59c6.15-.86,10.45-6.53,9.59-12.68Z"/>
    <rect class="cls-18" x="234.82" y="302.22" width="9.45" height="4.77" transform="translate(-39.53 35.75) rotate(-7.89)"/>
    <path class="cls-31" d="M244.9,306.94c.78-.1-.06-6.21-.84-6.09l-.47,.06c-.78,.1,.06,6.21,.84,6.09l.48-.06h0Z"/>
    <path class="cls-19" d="M192.9,291.21c-2.2,12.23-17.2,13.3-10.11,15.96,5.18,1.95,8.62,5.15,10.65,7.76s4.29,6.73,4.91,12.23c.85,7.52,5.56-6.74,17.95-5.89,8.56,3.39,8.34,4.08,9.24,3.37,.49-.38,4.72-4.1-11.89-25.45-16.62-21.35-21.26-18.16-21.75-17.78-.9,.7-.19,.66,1,9.79h0Z"/>
    <path class="cls-20" d="M205.9,305.23c-5.39-6.92-13.02-14.01-13.02-14.01-.23,1.28-.65,2.47-1.19,3.57,3.08,2.97,6.78,7.08,11.21,12.77,4.43,5.69,7.51,10.29,9.63,14,1.2-.25,2.45-.37,3.75-.28,0,0-5-9.14-10.38-16.06h0Z"/>
  </g>
  <circle class="cls-10" cx="272.61" cy="272.61" r="5"/>
</svg>